<?xml version="1.0" encoding="UTF-8"?>
<mxfile host="app.diagrams.net" agent="Mozilla/5.0 (Macintosh; Intel Mac OS X 10_15_7) AppleWebKit/537.36 (KHTML, like Gecko) Chrome/134.0.0.0 Safari/537.36 OPR/119.0.0.0" version="27.1.6">
  <diagram name="Sayfa -1" id="z1epvNcXW3MXrpLp79G0">
    <mxGraphModel dx="1278" dy="1815" grid="1" gridSize="10" guides="1" tooltips="1" connect="1" arrows="1" fold="1" page="1" pageScale="1" pageWidth="827" pageHeight="1169" math="0" shadow="0">
      <root>
        <mxCell id="0" />
        <mxCell id="1" parent="0" />
        <mxCell id="q0Xq8yBIOzjxn-xwMt5K-13" value="" style="endArrow=classic;html=1;rounded=0;exitX=1;exitY=0.5;exitDx=0;exitDy=0;entryX=0;entryY=0.5;entryDx=0;entryDy=0;" parent="1" edge="1">
          <mxGeometry width="50" height="50" relative="1" as="geometry">
            <mxPoint x="511" y="-160" as="sourcePoint" />
            <mxPoint x="665" y="-160" as="targetPoint" />
          </mxGeometry>
        </mxCell>
        <mxCell id="q0Xq8yBIOzjxn-xwMt5K-14" value="keeps track of" style="text;html=1;align=center;verticalAlign=middle;whiteSpace=wrap;rounded=0;" parent="1" vertex="1">
          <mxGeometry x="523" y="-192" width="120" height="30" as="geometry" />
        </mxCell>
        <mxCell id="q0Xq8yBIOzjxn-xwMt5K-17" value="&lt;i&gt;&lt;span style=&quot;font-weight: 400;&quot;&gt;«abstract»&lt;/span&gt;&lt;br style=&quot;font-weight: 400;&quot;&gt;&amp;nbsp;User&lt;/i&gt;" style="swimlane;fontStyle=1;align=center;verticalAlign=top;childLayout=stackLayout;horizontal=1;startSize=40;horizontalStack=0;resizeParent=1;resizeParentMax=0;resizeLast=0;collapsible=1;marginBottom=0;whiteSpace=wrap;html=1;" parent="1" vertex="1">
          <mxGeometry x="667" y="-190" width="160" height="74" as="geometry" />
        </mxCell>
        <mxCell id="q0Xq8yBIOzjxn-xwMt5K-19" value="" style="line;strokeWidth=1;fillColor=none;align=left;verticalAlign=middle;spacingTop=-1;spacingLeft=3;spacingRight=3;rotatable=0;labelPosition=right;points=[];portConstraint=eastwest;strokeColor=inherit;" parent="q0Xq8yBIOzjxn-xwMt5K-17" vertex="1">
          <mxGeometry y="40" width="160" height="8" as="geometry" />
        </mxCell>
        <mxCell id="q0Xq8yBIOzjxn-xwMt5K-20" value="+ method(type): type&lt;div&gt;&lt;br&gt;&lt;/div&gt;" style="text;strokeColor=none;fillColor=none;align=left;verticalAlign=top;spacingLeft=4;spacingRight=4;overflow=hidden;rotatable=0;points=[[0,0.5],[1,0.5]];portConstraint=eastwest;whiteSpace=wrap;html=1;" parent="q0Xq8yBIOzjxn-xwMt5K-17" vertex="1">
          <mxGeometry y="48" width="160" height="26" as="geometry" />
        </mxCell>
        <mxCell id="q0Xq8yBIOzjxn-xwMt5K-21" value="SupUser" style="swimlane;fontStyle=1;align=center;verticalAlign=top;childLayout=stackLayout;horizontal=1;startSize=26;horizontalStack=0;resizeParent=1;resizeParentMax=0;resizeLast=0;collapsible=1;marginBottom=0;whiteSpace=wrap;html=1;" parent="1" vertex="1">
          <mxGeometry x="351" y="-190" width="160" height="52" as="geometry" />
        </mxCell>
        <mxCell id="q0Xq8yBIOzjxn-xwMt5K-23" value="&lt;u&gt;+ main()&lt;/u&gt;" style="text;strokeColor=none;fillColor=none;align=left;verticalAlign=top;spacingLeft=4;spacingRight=4;overflow=hidden;rotatable=0;points=[[0,0.5],[1,0.5]];portConstraint=eastwest;whiteSpace=wrap;html=1;" parent="q0Xq8yBIOzjxn-xwMt5K-21" vertex="1">
          <mxGeometry y="26" width="160" height="26" as="geometry" />
        </mxCell>
        <mxCell id="q0Xq8yBIOzjxn-xwMt5K-29" value="*" style="text;html=1;align=center;verticalAlign=middle;whiteSpace=wrap;rounded=0;" parent="1" vertex="1">
          <mxGeometry x="633" y="-180" width="34" height="18" as="geometry" />
        </mxCell>
        <mxCell id="q0Xq8yBIOzjxn-xwMt5K-34" value="Staff&lt;div&gt;&lt;br&gt;&lt;/div&gt;" style="swimlane;fontStyle=1;align=center;verticalAlign=top;childLayout=stackLayout;horizontal=1;startSize=26;horizontalStack=0;resizeParent=1;resizeParentMax=0;resizeLast=0;collapsible=1;marginBottom=0;whiteSpace=wrap;html=1;" parent="1" vertex="1">
          <mxGeometry x="1010" y="64" width="160" height="86" as="geometry" />
        </mxCell>
        <mxCell id="q0Xq8yBIOzjxn-xwMt5K-35" value="+ field: type" style="text;strokeColor=none;fillColor=none;align=left;verticalAlign=top;spacingLeft=4;spacingRight=4;overflow=hidden;rotatable=0;points=[[0,0.5],[1,0.5]];portConstraint=eastwest;whiteSpace=wrap;html=1;" parent="q0Xq8yBIOzjxn-xwMt5K-34" vertex="1">
          <mxGeometry y="26" width="160" height="26" as="geometry" />
        </mxCell>
        <mxCell id="q0Xq8yBIOzjxn-xwMt5K-36" value="" style="line;strokeWidth=1;fillColor=none;align=left;verticalAlign=middle;spacingTop=-1;spacingLeft=3;spacingRight=3;rotatable=0;labelPosition=right;points=[];portConstraint=eastwest;strokeColor=inherit;" parent="q0Xq8yBIOzjxn-xwMt5K-34" vertex="1">
          <mxGeometry y="52" width="160" height="8" as="geometry" />
        </mxCell>
        <mxCell id="q0Xq8yBIOzjxn-xwMt5K-37" value="+ method(type): type" style="text;strokeColor=none;fillColor=none;align=left;verticalAlign=top;spacingLeft=4;spacingRight=4;overflow=hidden;rotatable=0;points=[[0,0.5],[1,0.5]];portConstraint=eastwest;whiteSpace=wrap;html=1;" parent="q0Xq8yBIOzjxn-xwMt5K-34" vertex="1">
          <mxGeometry y="60" width="160" height="26" as="geometry" />
        </mxCell>
        <mxCell id="q0Xq8yBIOzjxn-xwMt5K-39" value="Customer" style="swimlane;fontStyle=1;align=center;verticalAlign=top;childLayout=stackLayout;horizontal=1;startSize=26;horizontalStack=0;resizeParent=1;resizeParentMax=0;resizeLast=0;collapsible=1;marginBottom=0;whiteSpace=wrap;html=1;" parent="1" vertex="1">
          <mxGeometry x="-345" y="66.46" width="160" height="86" as="geometry" />
        </mxCell>
        <mxCell id="q0Xq8yBIOzjxn-xwMt5K-40" value="+ field: type" style="text;strokeColor=none;fillColor=none;align=left;verticalAlign=top;spacingLeft=4;spacingRight=4;overflow=hidden;rotatable=0;points=[[0,0.5],[1,0.5]];portConstraint=eastwest;whiteSpace=wrap;html=1;" parent="q0Xq8yBIOzjxn-xwMt5K-39" vertex="1">
          <mxGeometry y="26" width="160" height="26" as="geometry" />
        </mxCell>
        <mxCell id="q0Xq8yBIOzjxn-xwMt5K-41" value="" style="line;strokeWidth=1;fillColor=none;align=left;verticalAlign=middle;spacingTop=-1;spacingLeft=3;spacingRight=3;rotatable=0;labelPosition=right;points=[];portConstraint=eastwest;strokeColor=inherit;" parent="q0Xq8yBIOzjxn-xwMt5K-39" vertex="1">
          <mxGeometry y="52" width="160" height="8" as="geometry" />
        </mxCell>
        <mxCell id="q0Xq8yBIOzjxn-xwMt5K-42" value="+ method(type): type" style="text;strokeColor=none;fillColor=none;align=left;verticalAlign=top;spacingLeft=4;spacingRight=4;overflow=hidden;rotatable=0;points=[[0,0.5],[1,0.5]];portConstraint=eastwest;whiteSpace=wrap;html=1;" parent="q0Xq8yBIOzjxn-xwMt5K-39" vertex="1">
          <mxGeometry y="60" width="160" height="26" as="geometry" />
        </mxCell>
        <mxCell id="q0Xq8yBIOzjxn-xwMt5K-56" value="" style="endArrow=block;endSize=16;endFill=0;html=1;rounded=0;exitX=0.5;exitY=0;exitDx=0;exitDy=0;entryX=0.544;entryY=1.115;entryDx=0;entryDy=0;entryPerimeter=0;" parent="1" source="q0Xq8yBIOzjxn-xwMt5K-39" target="q0Xq8yBIOzjxn-xwMt5K-20" edge="1">
          <mxGeometry width="160" relative="1" as="geometry">
            <mxPoint x="630" y="140" as="sourcePoint" />
            <mxPoint x="790" y="140" as="targetPoint" />
            <Array as="points">
              <mxPoint x="-265" y="50" />
              <mxPoint x="320" y="50" />
              <mxPoint x="754" y="50" />
            </Array>
          </mxGeometry>
        </mxCell>
        <mxCell id="q0Xq8yBIOzjxn-xwMt5K-58" value="" style="line;strokeWidth=1;fillColor=none;align=left;verticalAlign=middle;spacingTop=-1;spacingLeft=3;spacingRight=3;rotatable=0;labelPosition=right;points=[];portConstraint=eastwest;strokeColor=inherit;" parent="1" vertex="1">
          <mxGeometry x="750" y="46" width="350" height="8" as="geometry" />
        </mxCell>
        <mxCell id="q0Xq8yBIOzjxn-xwMt5K-59" value="" style="line;strokeWidth=1;fillColor=none;align=left;verticalAlign=middle;spacingTop=-1;spacingLeft=3;spacingRight=3;rotatable=0;labelPosition=right;points=[];portConstraint=eastwest;strokeColor=inherit;" parent="1" vertex="1">
          <mxGeometry x="1110" y="56" height="8" as="geometry" />
        </mxCell>
        <mxCell id="q0Xq8yBIOzjxn-xwMt5K-62" value="" style="shape=stencil(lVdJcuMwDHyNrigCIEHynEn+kao4Y9V47JTjbL8faFRyQtiCrJsWNrE1GmTHd6/bx5dNR+H1dDz82Xz0T6dtx786on6/3Rz7kz51fN/x3fPhuPl9PLztn8b3l8dh5fD09/A+7PA54mqFUAcUha/xSwTG/x8exvW7fv9zfQZu16MCogMo1gAR5OJaiNIAmGB4nQWIdSkSBM9CAqYGkAjQsxCtBVGXvKATSGoAOUD2LGSo2AIySJ4HYAgQQoNQo6n6lSstIE9bXAWUCsVYKEAyD8ha6rZyyi4vTcLA2QJKmgfEDGTY952HqwhGiNWaECdNqHlnG3V1fMqAYtNanCwhoIlZIDlJCjZkrTM6HRpBWnJXhsyOP/rblJkgOQGTTDw7AxDE6beIUMkCvI5OBTCsAWSGyGtcKjKp3I1BD5pR1qRVaZaNBb9uSrNiYvCJoR6XeME8RzMKARuqKrUdqkqBZOrgN4/qqKzsTwFBa8KTAO2fyhbgiQwGwGqj9mSMLjzydfKqEDvcWyvcZAfowmjQYbVq9iQb78Jwi1Nn3Tg92e6/MJ5pYv2N8x/t6Fw4YFzUd+EEE+z+/gmJps3O7gM51dIeb+lMk97PqTW1PYyT9F335lybab2SwQlWc23EXeePN5GjZaff7ynZWeCvFz0N4gp/tDeK9ceLVwdBTivyqaof2/Ht10u1Q8xp1qXD6vP44np9+D78P/e73Xh3+PnfXhb003jR4Pt/);lineShape=1;strokeColor=default;" parent="1" vertex="1">
          <mxGeometry x="1098.24" y="49.26" width="1.52" height="10.74" as="geometry" />
        </mxCell>
        <mxCell id="q0Xq8yBIOzjxn-xwMt5K-67" value="«interface»&lt;br&gt;&lt;b&gt;Search&lt;/b&gt;" style="html=1;whiteSpace=wrap;" parent="1" vertex="1">
          <mxGeometry x="-185" y="964" width="110" height="50" as="geometry" />
        </mxCell>
        <mxCell id="q0Xq8yBIOzjxn-xwMt5K-71" value="«interface»&lt;br&gt;&lt;b&gt;Stock&lt;/b&gt;" style="html=1;whiteSpace=wrap;" parent="1" vertex="1">
          <mxGeometry x="1020" y="742" width="110" height="50" as="geometry" />
        </mxCell>
        <mxCell id="q0Xq8yBIOzjxn-xwMt5K-72" value="«interface»&lt;br&gt;&lt;b&gt;Edit&lt;/b&gt;" style="html=1;whiteSpace=wrap;" parent="1" vertex="1">
          <mxGeometry x="820" y="884" width="110" height="50" as="geometry" />
        </mxCell>
        <mxCell id="q0Xq8yBIOzjxn-xwMt5K-90" value="&lt;i&gt;«interface»&lt;br&gt;&lt;b&gt;Login&lt;/b&gt;&lt;/i&gt;" style="html=1;whiteSpace=wrap;" parent="1" vertex="1">
          <mxGeometry x="120" y="-60" width="110" height="50" as="geometry" />
        </mxCell>
        <mxCell id="q0Xq8yBIOzjxn-xwMt5K-91" value="&lt;i&gt;«interface»&lt;br&gt;&lt;b&gt;Register&lt;/b&gt;&lt;/i&gt;" style="html=1;whiteSpace=wrap;" parent="1" vertex="1">
          <mxGeometry x="-520" y="-60" width="110" height="50" as="geometry" />
        </mxCell>
        <mxCell id="yLif0t2-L7paf6NupwVh-2" value="Librarian&lt;div&gt;&lt;br&gt;&lt;/div&gt;" style="swimlane;fontStyle=1;align=center;verticalAlign=top;childLayout=stackLayout;horizontal=1;startSize=26;horizontalStack=0;resizeParent=1;resizeParentMax=0;resizeLast=0;collapsible=1;marginBottom=0;whiteSpace=wrap;html=1;" parent="1" vertex="1">
          <mxGeometry x="503" y="252" width="160" height="86" as="geometry" />
        </mxCell>
        <mxCell id="yLif0t2-L7paf6NupwVh-3" value="+ field: type" style="text;strokeColor=none;fillColor=none;align=left;verticalAlign=top;spacingLeft=4;spacingRight=4;overflow=hidden;rotatable=0;points=[[0,0.5],[1,0.5]];portConstraint=eastwest;whiteSpace=wrap;html=1;" parent="yLif0t2-L7paf6NupwVh-2" vertex="1">
          <mxGeometry y="26" width="160" height="26" as="geometry" />
        </mxCell>
        <mxCell id="yLif0t2-L7paf6NupwVh-4" value="" style="line;strokeWidth=1;fillColor=none;align=left;verticalAlign=middle;spacingTop=-1;spacingLeft=3;spacingRight=3;rotatable=0;labelPosition=right;points=[];portConstraint=eastwest;strokeColor=inherit;" parent="yLif0t2-L7paf6NupwVh-2" vertex="1">
          <mxGeometry y="52" width="160" height="8" as="geometry" />
        </mxCell>
        <mxCell id="yLif0t2-L7paf6NupwVh-5" value="+ method(type): type" style="text;strokeColor=none;fillColor=none;align=left;verticalAlign=top;spacingLeft=4;spacingRight=4;overflow=hidden;rotatable=0;points=[[0,0.5],[1,0.5]];portConstraint=eastwest;whiteSpace=wrap;html=1;" parent="yLif0t2-L7paf6NupwVh-2" vertex="1">
          <mxGeometry y="60" width="160" height="26" as="geometry" />
        </mxCell>
        <mxCell id="yLif0t2-L7paf6NupwVh-6" value="&lt;div&gt;CLevel&lt;/div&gt;&lt;div&gt;&lt;br&gt;&lt;/div&gt;" style="swimlane;fontStyle=1;align=center;verticalAlign=top;childLayout=stackLayout;horizontal=1;startSize=26;horizontalStack=0;resizeParent=1;resizeParentMax=0;resizeLast=0;collapsible=1;marginBottom=0;whiteSpace=wrap;html=1;" parent="1" vertex="1">
          <mxGeometry x="1695" y="640" width="160" height="86" as="geometry" />
        </mxCell>
        <mxCell id="yLif0t2-L7paf6NupwVh-7" value="+ field: type" style="text;strokeColor=none;fillColor=none;align=left;verticalAlign=top;spacingLeft=4;spacingRight=4;overflow=hidden;rotatable=0;points=[[0,0.5],[1,0.5]];portConstraint=eastwest;whiteSpace=wrap;html=1;" parent="yLif0t2-L7paf6NupwVh-6" vertex="1">
          <mxGeometry y="26" width="160" height="26" as="geometry" />
        </mxCell>
        <mxCell id="yLif0t2-L7paf6NupwVh-8" value="" style="line;strokeWidth=1;fillColor=none;align=left;verticalAlign=middle;spacingTop=-1;spacingLeft=3;spacingRight=3;rotatable=0;labelPosition=right;points=[];portConstraint=eastwest;strokeColor=inherit;" parent="yLif0t2-L7paf6NupwVh-6" vertex="1">
          <mxGeometry y="52" width="160" height="8" as="geometry" />
        </mxCell>
        <mxCell id="yLif0t2-L7paf6NupwVh-9" value="+ method(type): type" style="text;strokeColor=none;fillColor=none;align=left;verticalAlign=top;spacingLeft=4;spacingRight=4;overflow=hidden;rotatable=0;points=[[0,0.5],[1,0.5]];portConstraint=eastwest;whiteSpace=wrap;html=1;" parent="yLif0t2-L7paf6NupwVh-6" vertex="1">
          <mxGeometry y="60" width="160" height="26" as="geometry" />
        </mxCell>
        <mxCell id="yLif0t2-L7paf6NupwVh-10" value="&lt;div&gt;Manager&lt;/div&gt;" style="swimlane;fontStyle=1;align=center;verticalAlign=top;childLayout=stackLayout;horizontal=1;startSize=26;horizontalStack=0;resizeParent=1;resizeParentMax=0;resizeLast=0;collapsible=1;marginBottom=0;whiteSpace=wrap;html=1;" parent="1" vertex="1">
          <mxGeometry x="1695" y="490" width="160" height="86" as="geometry" />
        </mxCell>
        <mxCell id="yLif0t2-L7paf6NupwVh-11" value="+ field: type" style="text;strokeColor=none;fillColor=none;align=left;verticalAlign=top;spacingLeft=4;spacingRight=4;overflow=hidden;rotatable=0;points=[[0,0.5],[1,0.5]];portConstraint=eastwest;whiteSpace=wrap;html=1;" parent="yLif0t2-L7paf6NupwVh-10" vertex="1">
          <mxGeometry y="26" width="160" height="26" as="geometry" />
        </mxCell>
        <mxCell id="yLif0t2-L7paf6NupwVh-12" value="" style="line;strokeWidth=1;fillColor=none;align=left;verticalAlign=middle;spacingTop=-1;spacingLeft=3;spacingRight=3;rotatable=0;labelPosition=right;points=[];portConstraint=eastwest;strokeColor=inherit;" parent="yLif0t2-L7paf6NupwVh-10" vertex="1">
          <mxGeometry y="52" width="160" height="8" as="geometry" />
        </mxCell>
        <mxCell id="yLif0t2-L7paf6NupwVh-13" value="+ method(type): type" style="text;strokeColor=none;fillColor=none;align=left;verticalAlign=top;spacingLeft=4;spacingRight=4;overflow=hidden;rotatable=0;points=[[0,0.5],[1,0.5]];portConstraint=eastwest;whiteSpace=wrap;html=1;" parent="yLif0t2-L7paf6NupwVh-10" vertex="1">
          <mxGeometry y="60" width="160" height="26" as="geometry" />
        </mxCell>
        <mxCell id="yLif0t2-L7paf6NupwVh-15" value="&lt;div&gt;Personel&lt;/div&gt;" style="swimlane;fontStyle=1;align=center;verticalAlign=top;childLayout=stackLayout;horizontal=1;startSize=26;horizontalStack=0;resizeParent=1;resizeParentMax=0;resizeLast=0;collapsible=1;marginBottom=0;whiteSpace=wrap;html=1;" parent="1" vertex="1">
          <mxGeometry x="1695" y="190" width="160" height="86" as="geometry" />
        </mxCell>
        <mxCell id="yLif0t2-L7paf6NupwVh-16" value="+ field: type" style="text;strokeColor=none;fillColor=none;align=left;verticalAlign=top;spacingLeft=4;spacingRight=4;overflow=hidden;rotatable=0;points=[[0,0.5],[1,0.5]];portConstraint=eastwest;whiteSpace=wrap;html=1;" parent="yLif0t2-L7paf6NupwVh-15" vertex="1">
          <mxGeometry y="26" width="160" height="26" as="geometry" />
        </mxCell>
        <mxCell id="yLif0t2-L7paf6NupwVh-17" value="" style="line;strokeWidth=1;fillColor=none;align=left;verticalAlign=middle;spacingTop=-1;spacingLeft=3;spacingRight=3;rotatable=0;labelPosition=right;points=[];portConstraint=eastwest;strokeColor=inherit;" parent="yLif0t2-L7paf6NupwVh-15" vertex="1">
          <mxGeometry y="52" width="160" height="8" as="geometry" />
        </mxCell>
        <mxCell id="yLif0t2-L7paf6NupwVh-18" value="+ method(type): type" style="text;strokeColor=none;fillColor=none;align=left;verticalAlign=top;spacingLeft=4;spacingRight=4;overflow=hidden;rotatable=0;points=[[0,0.5],[1,0.5]];portConstraint=eastwest;whiteSpace=wrap;html=1;" parent="yLif0t2-L7paf6NupwVh-15" vertex="1">
          <mxGeometry y="60" width="160" height="26" as="geometry" />
        </mxCell>
        <mxCell id="q0Xq8yBIOzjxn-xwMt5K-95" value="" style="endArrow=diamondThin;endFill=0;endSize=24;html=1;rounded=0;" parent="1" edge="1">
          <mxGeometry width="160" relative="1" as="geometry">
            <mxPoint x="827" y="-153.53" as="sourcePoint" />
            <mxPoint x="987" y="-153.53" as="targetPoint" />
          </mxGeometry>
        </mxCell>
        <mxCell id="q0Xq8yBIOzjxn-xwMt5K-96" value="&lt;div&gt;UserSystem&lt;/div&gt;" style="swimlane;fontStyle=1;align=center;verticalAlign=top;childLayout=stackLayout;horizontal=1;startSize=26;horizontalStack=0;resizeParent=1;resizeParentMax=0;resizeLast=0;collapsible=1;marginBottom=0;whiteSpace=wrap;html=1;" parent="1" vertex="1">
          <mxGeometry x="990" y="-190" width="290" height="112" as="geometry" />
        </mxCell>
        <mxCell id="q0Xq8yBIOzjxn-xwMt5K-97" value="+ field: type" style="text;strokeColor=none;fillColor=none;align=left;verticalAlign=top;spacingLeft=4;spacingRight=4;overflow=hidden;rotatable=0;points=[[0,0.5],[1,0.5]];portConstraint=eastwest;whiteSpace=wrap;html=1;" parent="q0Xq8yBIOzjxn-xwMt5K-96" vertex="1">
          <mxGeometry y="26" width="290" height="26" as="geometry" />
        </mxCell>
        <mxCell id="q0Xq8yBIOzjxn-xwMt5K-98" value="" style="line;strokeWidth=1;fillColor=none;align=left;verticalAlign=middle;spacingTop=-1;spacingLeft=3;spacingRight=3;rotatable=0;labelPosition=right;points=[];portConstraint=eastwest;strokeColor=inherit;" parent="q0Xq8yBIOzjxn-xwMt5K-96" vertex="1">
          <mxGeometry y="52" width="290" height="8" as="geometry" />
        </mxCell>
        <mxCell id="q0Xq8yBIOzjxn-xwMt5K-99" value="&lt;u&gt;+ checkSpecialNeeded(User u) : boolean&lt;/u&gt;" style="text;strokeColor=none;fillColor=none;align=left;verticalAlign=top;spacingLeft=4;spacingRight=4;overflow=hidden;rotatable=0;points=[[0,0.5],[1,0.5]];portConstraint=eastwest;whiteSpace=wrap;html=1;" parent="q0Xq8yBIOzjxn-xwMt5K-96" vertex="1">
          <mxGeometry y="60" width="290" height="26" as="geometry" />
        </mxCell>
        <mxCell id="q0Xq8yBIOzjxn-xwMt5K-159" value="&lt;u&gt;+ method(type): type&lt;/u&gt;&lt;div&gt;&lt;u&gt;&lt;br&gt;&lt;/u&gt;&lt;/div&gt;" style="text;strokeColor=none;fillColor=none;align=left;verticalAlign=top;spacingLeft=4;spacingRight=4;overflow=hidden;rotatable=0;points=[[0,0.5],[1,0.5]];portConstraint=eastwest;whiteSpace=wrap;html=1;" parent="q0Xq8yBIOzjxn-xwMt5K-96" vertex="1">
          <mxGeometry y="86" width="290" height="26" as="geometry" />
        </mxCell>
        <mxCell id="yLif0t2-L7paf6NupwVh-19" value="&lt;div&gt;&lt;span style=&quot;background-color: transparent; color: light-dark(rgb(0, 0, 0), rgb(255, 255, 255));&quot;&gt;&lt;span style=&quot;font-weight: 400;&quot;&gt;&lt;i&gt;«abstract»&lt;/i&gt;&lt;/span&gt;&lt;/span&gt;&lt;/div&gt;&lt;div&gt;&lt;i&gt;Book&lt;/i&gt;&lt;/div&gt;" style="swimlane;fontStyle=1;align=center;verticalAlign=top;childLayout=stackLayout;horizontal=1;startSize=40;horizontalStack=0;resizeParent=1;resizeParentMax=0;resizeLast=0;collapsible=1;marginBottom=0;whiteSpace=wrap;html=1;" parent="1" vertex="1">
          <mxGeometry x="800" y="222.46" width="160" height="130" as="geometry" />
        </mxCell>
        <mxCell id="yLif0t2-L7paf6NupwVh-20" value="+ field: type" style="text;strokeColor=none;fillColor=none;align=left;verticalAlign=top;spacingLeft=4;spacingRight=4;overflow=hidden;rotatable=0;points=[[0,0.5],[1,0.5]];portConstraint=eastwest;whiteSpace=wrap;html=1;" parent="yLif0t2-L7paf6NupwVh-19" vertex="1">
          <mxGeometry y="40" width="160" height="26" as="geometry" />
        </mxCell>
        <mxCell id="yLif0t2-L7paf6NupwVh-21" value="" style="line;strokeWidth=1;fillColor=none;align=left;verticalAlign=middle;spacingTop=-1;spacingLeft=3;spacingRight=3;rotatable=0;labelPosition=right;points=[];portConstraint=eastwest;strokeColor=inherit;" parent="yLif0t2-L7paf6NupwVh-19" vertex="1">
          <mxGeometry y="66" width="160" height="8" as="geometry" />
        </mxCell>
        <mxCell id="IVzA2mqmO_1DDVfMOCK_-29" value="+ method(type): type" style="text;strokeColor=none;fillColor=none;align=left;verticalAlign=top;spacingLeft=4;spacingRight=4;overflow=hidden;rotatable=0;points=[[0,0.5],[1,0.5]];portConstraint=eastwest;whiteSpace=wrap;html=1;" parent="yLif0t2-L7paf6NupwVh-19" vertex="1">
          <mxGeometry y="74" width="160" height="26" as="geometry" />
        </mxCell>
        <mxCell id="yLif0t2-L7paf6NupwVh-22" value="+ method(type): type" style="text;strokeColor=none;fillColor=none;align=left;verticalAlign=top;spacingLeft=4;spacingRight=4;overflow=hidden;rotatable=0;points=[[0,0.5],[1,0.5]];portConstraint=eastwest;whiteSpace=wrap;html=1;" parent="yLif0t2-L7paf6NupwVh-19" vertex="1">
          <mxGeometry y="100" width="160" height="30" as="geometry" />
        </mxCell>
        <mxCell id="q0Xq8yBIOzjxn-xwMt5K-104" value="idye gore asc order" style="text;align=center;fontStyle=1;verticalAlign=middle;spacingLeft=3;spacingRight=3;strokeColor=none;rotatable=0;points=[[0,0.5],[1,0.5]];portConstraint=eastwest;html=1;" parent="1" vertex="1">
          <mxGeometry x="1615" y="-516" width="80" height="26" as="geometry" />
        </mxCell>
        <mxCell id="yLif0t2-L7paf6NupwVh-28" value="&lt;div&gt;Author&lt;/div&gt;" style="swimlane;fontStyle=1;align=center;verticalAlign=top;childLayout=stackLayout;horizontal=1;startSize=26;horizontalStack=0;resizeParent=1;resizeParentMax=0;resizeLast=0;collapsible=1;marginBottom=0;whiteSpace=wrap;html=1;" parent="1" vertex="1">
          <mxGeometry x="1060" y="199.99999999999997" width="160" height="86" as="geometry" />
        </mxCell>
        <mxCell id="yLif0t2-L7paf6NupwVh-29" value="+ field: type" style="text;strokeColor=none;fillColor=none;align=left;verticalAlign=top;spacingLeft=4;spacingRight=4;overflow=hidden;rotatable=0;points=[[0,0.5],[1,0.5]];portConstraint=eastwest;whiteSpace=wrap;html=1;" parent="yLif0t2-L7paf6NupwVh-28" vertex="1">
          <mxGeometry y="26" width="160" height="26" as="geometry" />
        </mxCell>
        <mxCell id="yLif0t2-L7paf6NupwVh-30" value="" style="line;strokeWidth=1;fillColor=none;align=left;verticalAlign=middle;spacingTop=-1;spacingLeft=3;spacingRight=3;rotatable=0;labelPosition=right;points=[];portConstraint=eastwest;strokeColor=inherit;" parent="yLif0t2-L7paf6NupwVh-28" vertex="1">
          <mxGeometry y="52" width="160" height="8" as="geometry" />
        </mxCell>
        <mxCell id="yLif0t2-L7paf6NupwVh-31" value="+ method(type): type" style="text;strokeColor=none;fillColor=none;align=left;verticalAlign=top;spacingLeft=4;spacingRight=4;overflow=hidden;rotatable=0;points=[[0,0.5],[1,0.5]];portConstraint=eastwest;whiteSpace=wrap;html=1;" parent="yLif0t2-L7paf6NupwVh-28" vertex="1">
          <mxGeometry y="60" width="160" height="26" as="geometry" />
        </mxCell>
        <mxCell id="q0Xq8yBIOzjxn-xwMt5K-115" value="Guest" style="swimlane;fontStyle=1;align=center;verticalAlign=top;childLayout=stackLayout;horizontal=1;startSize=26;horizontalStack=0;resizeParent=1;resizeParentMax=0;resizeLast=0;collapsible=1;marginBottom=0;whiteSpace=wrap;html=1;" parent="1" vertex="1">
          <mxGeometry x="-680" y="126.46" width="160" height="86" as="geometry" />
        </mxCell>
        <mxCell id="q0Xq8yBIOzjxn-xwMt5K-116" value="+ field: type" style="text;strokeColor=none;fillColor=none;align=left;verticalAlign=top;spacingLeft=4;spacingRight=4;overflow=hidden;rotatable=0;points=[[0,0.5],[1,0.5]];portConstraint=eastwest;whiteSpace=wrap;html=1;" parent="q0Xq8yBIOzjxn-xwMt5K-115" vertex="1">
          <mxGeometry y="26" width="160" height="26" as="geometry" />
        </mxCell>
        <mxCell id="q0Xq8yBIOzjxn-xwMt5K-117" value="" style="line;strokeWidth=1;fillColor=none;align=left;verticalAlign=middle;spacingTop=-1;spacingLeft=3;spacingRight=3;rotatable=0;labelPosition=right;points=[];portConstraint=eastwest;strokeColor=inherit;" parent="q0Xq8yBIOzjxn-xwMt5K-115" vertex="1">
          <mxGeometry y="52" width="160" height="8" as="geometry" />
        </mxCell>
        <mxCell id="q0Xq8yBIOzjxn-xwMt5K-118" value="+ method(type): type" style="text;strokeColor=none;fillColor=none;align=left;verticalAlign=top;spacingLeft=4;spacingRight=4;overflow=hidden;rotatable=0;points=[[0,0.5],[1,0.5]];portConstraint=eastwest;whiteSpace=wrap;html=1;" parent="q0Xq8yBIOzjxn-xwMt5K-115" vertex="1">
          <mxGeometry y="60" width="160" height="26" as="geometry" />
        </mxCell>
        <mxCell id="q0Xq8yBIOzjxn-xwMt5K-125" value="" style="endArrow=block;dashed=1;endFill=0;endSize=12;html=1;rounded=0;entryX=0.5;entryY=0;entryDx=0;entryDy=0;exitX=0.455;exitY=1.13;exitDx=0;exitDy=0;exitPerimeter=0;" parent="1" source="q0Xq8yBIOzjxn-xwMt5K-23" target="q0Xq8yBIOzjxn-xwMt5K-90" edge="1">
          <mxGeometry width="160" relative="1" as="geometry">
            <mxPoint x="210" y="80" as="sourcePoint" />
            <mxPoint x="370" y="80" as="targetPoint" />
            <Array as="points">
              <mxPoint x="424" y="-110" />
              <mxPoint x="175" y="-110" />
            </Array>
          </mxGeometry>
        </mxCell>
        <mxCell id="q0Xq8yBIOzjxn-xwMt5K-135" value="&lt;p style=&quot;margin:0px;margin-top:4px;text-align:center;&quot;&gt;&lt;i&gt;&amp;lt;&amp;lt;interface&amp;gt;&amp;gt;&lt;br&gt;&lt;b&gt;Comparator&lt;/b&gt;&lt;/i&gt;&lt;/p&gt;&lt;hr size=&quot;1&quot; style=&quot;border-style:solid;&quot;&gt;&lt;p style=&quot;margin:0px;margin-left:4px;&quot;&gt;&lt;/p&gt;&lt;p style=&quot;margin:0px;margin-left:4px;&quot;&gt;+ compare(o1: Object, o2: Object): int&lt;/p&gt;" style="verticalAlign=top;align=left;overflow=fill;html=1;whiteSpace=wrap;" parent="1" vertex="1">
          <mxGeometry x="1590" y="-485" width="130" height="76" as="geometry" />
        </mxCell>
        <mxCell id="q0Xq8yBIOzjxn-xwMt5K-138" value="UserComparator" style="swimlane;fontStyle=1;align=center;verticalAlign=top;childLayout=stackLayout;horizontal=1;startSize=30;horizontalStack=0;resizeParent=1;resizeParentMax=0;resizeLast=0;collapsible=1;marginBottom=0;whiteSpace=wrap;html=1;" parent="1" vertex="1">
          <mxGeometry x="1300" y="-490" width="230" height="90" as="geometry" />
        </mxCell>
        <mxCell id="q0Xq8yBIOzjxn-xwMt5K-139" value="+ field: type" style="text;strokeColor=none;fillColor=none;align=left;verticalAlign=top;spacingLeft=4;spacingRight=4;overflow=hidden;rotatable=0;points=[[0,0.5],[1,0.5]];portConstraint=eastwest;whiteSpace=wrap;html=1;" parent="q0Xq8yBIOzjxn-xwMt5K-138" vertex="1">
          <mxGeometry y="30" width="230" height="26" as="geometry" />
        </mxCell>
        <mxCell id="q0Xq8yBIOzjxn-xwMt5K-140" value="" style="line;strokeWidth=1;fillColor=none;align=left;verticalAlign=middle;spacingTop=-1;spacingLeft=3;spacingRight=3;rotatable=0;labelPosition=right;points=[];portConstraint=eastwest;strokeColor=inherit;" parent="q0Xq8yBIOzjxn-xwMt5K-138" vertex="1">
          <mxGeometry y="56" width="230" height="8" as="geometry" />
        </mxCell>
        <mxCell id="q0Xq8yBIOzjxn-xwMt5K-141" value="+ compare(User u1, User u2)" style="text;strokeColor=none;fillColor=none;align=left;verticalAlign=top;spacingLeft=4;spacingRight=4;overflow=hidden;rotatable=0;points=[[0,0.5],[1,0.5]];portConstraint=eastwest;whiteSpace=wrap;html=1;" parent="q0Xq8yBIOzjxn-xwMt5K-138" vertex="1">
          <mxGeometry y="64" width="230" height="26" as="geometry" />
        </mxCell>
        <mxCell id="q0Xq8yBIOzjxn-xwMt5K-142" value="" style="endArrow=block;dashed=1;endFill=0;endSize=12;html=1;rounded=0;exitX=1;exitY=0.5;exitDx=0;exitDy=0;entryX=0;entryY=0.5;entryDx=0;entryDy=0;" parent="1" source="q0Xq8yBIOzjxn-xwMt5K-139" target="q0Xq8yBIOzjxn-xwMt5K-135" edge="1">
          <mxGeometry width="160" relative="1" as="geometry">
            <mxPoint x="1365" y="-247" as="sourcePoint" />
            <mxPoint x="1500" y="-180" as="targetPoint" />
          </mxGeometry>
        </mxCell>
        <mxCell id="q0Xq8yBIOzjxn-xwMt5K-143" value="" style="endArrow=none;html=1;edgeStyle=orthogonalEdgeStyle;rounded=0;exitX=0.5;exitY=0;exitDx=0;exitDy=0;entryX=0;entryY=0.5;entryDx=0;entryDy=0;" parent="1" source="q0Xq8yBIOzjxn-xwMt5K-96" target="q0Xq8yBIOzjxn-xwMt5K-139" edge="1">
          <mxGeometry relative="1" as="geometry">
            <mxPoint x="1210" y="-180" as="sourcePoint" />
            <mxPoint x="1320" y="-240" as="targetPoint" />
          </mxGeometry>
        </mxCell>
        <mxCell id="yLif0t2-L7paf6NupwVh-46" value="" style="endArrow=block;endSize=16;endFill=0;html=1;rounded=0;exitX=0.513;exitY=0.98;exitDx=0;exitDy=0;exitPerimeter=0;" parent="1" source="AgzgaEjoR8yFsVKr8jUF-5" edge="1">
          <mxGeometry width="160" relative="1" as="geometry">
            <mxPoint x="1775.3999999999999" y="414.702" as="sourcePoint" />
            <mxPoint x="1777" y="490" as="targetPoint" />
            <Array as="points" />
          </mxGeometry>
        </mxCell>
        <mxCell id="yLif0t2-L7paf6NupwVh-47" value="" style="endArrow=block;endSize=16;endFill=0;html=1;rounded=0;exitX=0.497;exitY=1.02;exitDx=0;exitDy=0;exitPerimeter=0;" parent="1" source="yLif0t2-L7paf6NupwVh-13" edge="1">
          <mxGeometry width="160" relative="1" as="geometry">
            <mxPoint x="1775" y="580" as="sourcePoint" />
            <mxPoint x="1775" y="640" as="targetPoint" />
            <Array as="points" />
          </mxGeometry>
        </mxCell>
        <mxCell id="q0Xq8yBIOzjxn-xwMt5K-164" value="hieararcy rule" style="text;align=center;fontStyle=1;verticalAlign=middle;spacingLeft=3;spacingRight=3;strokeColor=none;rotatable=0;points=[[0,0.5],[1,0.5]];portConstraint=eastwest;html=1;" parent="1" vertex="1">
          <mxGeometry x="1890" y="454" width="80" height="26" as="geometry" />
        </mxCell>
        <mxCell id="yLif0t2-L7paf6NupwVh-49" value="«dataType»&lt;br&gt;&lt;b&gt;Address&lt;/b&gt;" style="html=1;whiteSpace=wrap;" parent="1" vertex="1">
          <mxGeometry x="1290" y="196" width="110" height="50" as="geometry" />
        </mxCell>
        <mxCell id="q0Xq8yBIOzjxn-xwMt5K-166" value="Order" style="swimlane;fontStyle=1;align=center;verticalAlign=top;childLayout=stackLayout;horizontal=1;startSize=30;horizontalStack=0;resizeParent=1;resizeParentMax=0;resizeLast=0;collapsible=1;marginBottom=0;whiteSpace=wrap;html=1;" parent="1" vertex="1">
          <mxGeometry x="-540" y="820" width="190" height="64" as="geometry" />
        </mxCell>
        <mxCell id="q0Xq8yBIOzjxn-xwMt5K-167" value="" style="line;strokeWidth=1;fillColor=none;align=left;verticalAlign=middle;spacingTop=-1;spacingLeft=3;spacingRight=3;rotatable=0;labelPosition=right;points=[];portConstraint=eastwest;strokeColor=inherit;" parent="q0Xq8yBIOzjxn-xwMt5K-166" vertex="1">
          <mxGeometry y="30" width="190" height="8" as="geometry" />
        </mxCell>
        <mxCell id="q0Xq8yBIOzjxn-xwMt5K-168" value="+ method(type): type&lt;div&gt;&lt;br&gt;&lt;/div&gt;" style="text;strokeColor=none;fillColor=none;align=left;verticalAlign=top;spacingLeft=4;spacingRight=4;overflow=hidden;rotatable=0;points=[[0,0.5],[1,0.5]];portConstraint=eastwest;whiteSpace=wrap;html=1;" parent="q0Xq8yBIOzjxn-xwMt5K-166" vertex="1">
          <mxGeometry y="38" width="190" height="26" as="geometry" />
        </mxCell>
        <mxCell id="yLif0t2-L7paf6NupwVh-50" value="&lt;p style=&quot;margin:0px;margin-top:4px;text-align:center;&quot;&gt;&lt;i&gt;&amp;lt;&amp;lt;enumeration&amp;gt;&amp;gt;&lt;br&gt;&lt;b&gt;Language&lt;/b&gt;&lt;/i&gt;&lt;/p&gt;&lt;hr size=&quot;1&quot; style=&quot;border-style:solid;&quot;&gt;&lt;p style=&quot;margin:0px;margin-left:4px;&quot;&gt;&lt;/p&gt;&lt;p style=&quot;margin:0px;margin-left:4px;&quot;&gt;&lt;br&gt;&lt;/p&gt;" style="verticalAlign=top;align=left;overflow=fill;html=1;whiteSpace=wrap;" parent="1" vertex="1">
          <mxGeometry x="1290" y="257" width="108.5" height="76" as="geometry" />
        </mxCell>
        <mxCell id="q0Xq8yBIOzjxn-xwMt5K-174" value="" style="endArrow=diamondThin;endFill=0;endSize=24;html=1;rounded=0;exitX=0.463;exitY=0.994;exitDx=0;exitDy=0;exitPerimeter=0;" parent="1" source="q0Xq8yBIOzjxn-xwMt5K-42" target="q0Xq8yBIOzjxn-xwMt5K-166" edge="1">
          <mxGeometry width="160" relative="1" as="geometry">
            <mxPoint x="-250" y="-40" as="sourcePoint" />
            <mxPoint x="-50" y="597" as="targetPoint" />
            <Array as="points">
              <mxPoint x="-271" y="280" />
              <mxPoint x="-440" y="280" />
            </Array>
          </mxGeometry>
        </mxCell>
        <mxCell id="yLif0t2-L7paf6NupwVh-51" value="&lt;p style=&quot;margin:0px;margin-top:4px;text-align:center;&quot;&gt;&lt;i&gt;&amp;lt;&amp;lt;enumeration&amp;gt;&amp;gt;&lt;br&gt;&lt;b&gt;UserState&lt;/b&gt;&lt;/i&gt;&lt;/p&gt;&lt;hr size=&quot;1&quot; style=&quot;border-style:solid;&quot;&gt;&lt;p style=&quot;margin:0px;margin-left:4px;&quot;&gt;&lt;/p&gt;&lt;p style=&quot;margin:0px;margin-left:4px;&quot;&gt;active&lt;/p&gt;&lt;p style=&quot;margin:0px;margin-left:4px;&quot;&gt;frozen&lt;/p&gt;&lt;p style=&quot;margin:0px;margin-left:4px;&quot;&gt;closed&lt;/p&gt;" style="verticalAlign=top;align=left;overflow=fill;html=1;whiteSpace=wrap;" parent="1" vertex="1">
          <mxGeometry x="1410" y="196" width="108.5" height="100" as="geometry" />
        </mxCell>
        <mxCell id="yLif0t2-L7paf6NupwVh-52" value="&lt;p style=&quot;margin:0px;margin-top:4px;text-align:center;&quot;&gt;&lt;i&gt;&amp;lt;&amp;lt;enumeration&amp;gt;&amp;gt;&lt;br&gt;&lt;b&gt;Format&lt;/b&gt;&lt;/i&gt;&lt;/p&gt;&lt;hr size=&quot;1&quot; style=&quot;border-style:solid;&quot;&gt;&lt;p style=&quot;margin:0px;margin-left:4px;&quot;&gt;&lt;/p&gt;&lt;p style=&quot;margin:0px;margin-left:4px;&quot;&gt;book&lt;/p&gt;&lt;p style=&quot;margin:0px;margin-left:4px;&quot;&gt;ebook&lt;/p&gt;&lt;p style=&quot;margin:0px;margin-left:4px;&quot;&gt;asset&lt;/p&gt;&lt;p style=&quot;margin:0px;margin-left:4px;&quot;&gt;mixed&lt;/p&gt;&lt;p style=&quot;margin:0px;margin-left:4px;&quot;&gt;continuing&lt;/p&gt;&lt;p style=&quot;margin:0px;margin-left:4px;&quot;&gt;&lt;br&gt;&lt;/p&gt;" style="verticalAlign=top;align=left;overflow=fill;html=1;whiteSpace=wrap;" parent="1" vertex="1">
          <mxGeometry x="1410" y="306.46" width="108.5" height="123.54" as="geometry" />
        </mxCell>
        <mxCell id="yLif0t2-L7paf6NupwVh-53" value="Stock" style="swimlane;fontStyle=1;align=center;verticalAlign=top;childLayout=stackLayout;horizontal=1;startSize=30;horizontalStack=0;resizeParent=1;resizeParentMax=0;resizeLast=0;collapsible=1;marginBottom=0;whiteSpace=wrap;html=1;" parent="1" vertex="1">
          <mxGeometry x="1130" y="957" width="190" height="64" as="geometry" />
        </mxCell>
        <mxCell id="yLif0t2-L7paf6NupwVh-54" value="" style="line;strokeWidth=1;fillColor=none;align=left;verticalAlign=middle;spacingTop=-1;spacingLeft=3;spacingRight=3;rotatable=0;labelPosition=right;points=[];portConstraint=eastwest;strokeColor=inherit;" parent="yLif0t2-L7paf6NupwVh-53" vertex="1">
          <mxGeometry y="30" width="190" height="8" as="geometry" />
        </mxCell>
        <mxCell id="yLif0t2-L7paf6NupwVh-55" value="+ method(type): type&lt;div&gt;&lt;br&gt;&lt;/div&gt;" style="text;strokeColor=none;fillColor=none;align=left;verticalAlign=top;spacingLeft=4;spacingRight=4;overflow=hidden;rotatable=0;points=[[0,0.5],[1,0.5]];portConstraint=eastwest;whiteSpace=wrap;html=1;" parent="yLif0t2-L7paf6NupwVh-53" vertex="1">
          <mxGeometry y="38" width="190" height="26" as="geometry" />
        </mxCell>
        <mxCell id="yLif0t2-L7paf6NupwVh-56" value="" style="endArrow=block;dashed=1;endFill=0;endSize=12;html=1;rounded=0;entryX=1;entryY=0.75;entryDx=0;entryDy=0;" parent="1" target="q0Xq8yBIOzjxn-xwMt5K-72" edge="1">
          <mxGeometry width="160" relative="1" as="geometry">
            <mxPoint x="1130" y="980" as="sourcePoint" />
            <mxPoint x="930" y="909" as="targetPoint" />
            <Array as="points">
              <mxPoint x="1040" y="980" />
              <mxPoint x="1040" y="922" />
            </Array>
          </mxGeometry>
        </mxCell>
        <mxCell id="yLif0t2-L7paf6NupwVh-57" value="" style="endArrow=block;dashed=1;endFill=0;endSize=12;html=1;rounded=0;exitX=0.175;exitY=-0.046;exitDx=0;exitDy=0;exitPerimeter=0;entryX=1;entryY=0.5;entryDx=0;entryDy=0;" parent="1" source="yLif0t2-L7paf6NupwVh-53" target="q0Xq8yBIOzjxn-xwMt5K-71" edge="1">
          <mxGeometry width="160" relative="1" as="geometry">
            <mxPoint x="1087" y="750" as="sourcePoint" />
            <mxPoint x="1130" y="820" as="targetPoint" />
            <Array as="points">
              <mxPoint x="1163" y="767" />
            </Array>
          </mxGeometry>
        </mxCell>
        <mxCell id="yLif0t2-L7paf6NupwVh-60" value="" style="endArrow=block;dashed=1;endFill=0;endSize=12;html=1;rounded=0;exitX=-0.002;exitY=0.162;exitDx=0;exitDy=0;entryX=1;entryY=0.75;entryDx=0;entryDy=0;exitPerimeter=0;" parent="1" source="yLif0t2-L7paf6NupwVh-55" target="q0Xq8yBIOzjxn-xwMt5K-67" edge="1">
          <mxGeometry width="160" relative="1" as="geometry">
            <mxPoint x="1087" y="780" as="sourcePoint" />
            <mxPoint x="1010" y="868" as="targetPoint" />
          </mxGeometry>
        </mxCell>
        <mxCell id="NbIjKqBptj14JUt2TVp6-1" value="Permission" style="swimlane;fontStyle=1;align=center;verticalAlign=top;childLayout=stackLayout;horizontal=1;startSize=30;horizontalStack=0;resizeParent=1;resizeParentMax=0;resizeLast=0;collapsible=1;marginBottom=0;whiteSpace=wrap;html=1;" parent="1" vertex="1">
          <mxGeometry x="625" y="-420" width="230" height="90" as="geometry" />
        </mxCell>
        <mxCell id="NbIjKqBptj14JUt2TVp6-2" value="+ field: type" style="text;strokeColor=none;fillColor=none;align=left;verticalAlign=top;spacingLeft=4;spacingRight=4;overflow=hidden;rotatable=0;points=[[0,0.5],[1,0.5]];portConstraint=eastwest;whiteSpace=wrap;html=1;" parent="NbIjKqBptj14JUt2TVp6-1" vertex="1">
          <mxGeometry y="30" width="230" height="26" as="geometry" />
        </mxCell>
        <mxCell id="NbIjKqBptj14JUt2TVp6-3" value="" style="line;strokeWidth=1;fillColor=none;align=left;verticalAlign=middle;spacingTop=-1;spacingLeft=3;spacingRight=3;rotatable=0;labelPosition=right;points=[];portConstraint=eastwest;strokeColor=inherit;" parent="NbIjKqBptj14JUt2TVp6-1" vertex="1">
          <mxGeometry y="56" width="230" height="8" as="geometry" />
        </mxCell>
        <mxCell id="NbIjKqBptj14JUt2TVp6-4" value="+ method(type): type" style="text;strokeColor=none;fillColor=none;align=left;verticalAlign=top;spacingLeft=4;spacingRight=4;overflow=hidden;rotatable=0;points=[[0,0.5],[1,0.5]];portConstraint=eastwest;whiteSpace=wrap;html=1;" parent="NbIjKqBptj14JUt2TVp6-1" vertex="1">
          <mxGeometry y="64" width="230" height="26" as="geometry" />
        </mxCell>
        <mxCell id="IVzA2mqmO_1DDVfMOCK_-18" value="&lt;div&gt;&lt;span style=&quot;background-color: transparent; color: light-dark(rgb(0, 0, 0), rgb(255, 255, 255));&quot;&gt;&lt;span style=&quot;font-weight: 400;&quot;&gt;&lt;i&gt;«abstract»&lt;/i&gt;&lt;/span&gt;&lt;/span&gt;&lt;/div&gt;&lt;div&gt;&lt;i&gt;Transaction&lt;/i&gt;&lt;/div&gt;" style="swimlane;fontStyle=1;align=center;verticalAlign=top;childLayout=stackLayout;horizontal=1;startSize=40;horizontalStack=0;resizeParent=1;resizeParentMax=0;resizeLast=0;collapsible=1;marginBottom=0;whiteSpace=wrap;html=1;" parent="1" vertex="1">
          <mxGeometry x="230" y="286" width="160" height="100" as="geometry" />
        </mxCell>
        <mxCell id="IVzA2mqmO_1DDVfMOCK_-19" value="+ field: type" style="text;strokeColor=none;fillColor=none;align=left;verticalAlign=top;spacingLeft=4;spacingRight=4;overflow=hidden;rotatable=0;points=[[0,0.5],[1,0.5]];portConstraint=eastwest;whiteSpace=wrap;html=1;" parent="IVzA2mqmO_1DDVfMOCK_-18" vertex="1">
          <mxGeometry y="40" width="160" height="26" as="geometry" />
        </mxCell>
        <mxCell id="IVzA2mqmO_1DDVfMOCK_-20" value="" style="line;strokeWidth=1;fillColor=none;align=left;verticalAlign=middle;spacingTop=-1;spacingLeft=3;spacingRight=3;rotatable=0;labelPosition=right;points=[];portConstraint=eastwest;strokeColor=inherit;" parent="IVzA2mqmO_1DDVfMOCK_-18" vertex="1">
          <mxGeometry y="66" width="160" height="8" as="geometry" />
        </mxCell>
        <mxCell id="IVzA2mqmO_1DDVfMOCK_-21" value="+ method(type): type" style="text;strokeColor=none;fillColor=none;align=left;verticalAlign=top;spacingLeft=4;spacingRight=4;overflow=hidden;rotatable=0;points=[[0,0.5],[1,0.5]];portConstraint=eastwest;whiteSpace=wrap;html=1;" parent="IVzA2mqmO_1DDVfMOCK_-18" vertex="1">
          <mxGeometry y="74" width="160" height="26" as="geometry" />
        </mxCell>
        <mxCell id="IVzA2mqmO_1DDVfMOCK_-22" value="&lt;div&gt;Bill&lt;/div&gt;" style="swimlane;fontStyle=1;align=center;verticalAlign=top;childLayout=stackLayout;horizontal=1;startSize=26;horizontalStack=0;resizeParent=1;resizeParentMax=0;resizeLast=0;collapsible=1;marginBottom=0;whiteSpace=wrap;html=1;" parent="1" vertex="1">
          <mxGeometry y="300" width="160" height="86" as="geometry" />
        </mxCell>
        <mxCell id="IVzA2mqmO_1DDVfMOCK_-23" value="+ field: type" style="text;strokeColor=none;fillColor=none;align=left;verticalAlign=top;spacingLeft=4;spacingRight=4;overflow=hidden;rotatable=0;points=[[0,0.5],[1,0.5]];portConstraint=eastwest;whiteSpace=wrap;html=1;" parent="IVzA2mqmO_1DDVfMOCK_-22" vertex="1">
          <mxGeometry y="26" width="160" height="26" as="geometry" />
        </mxCell>
        <mxCell id="IVzA2mqmO_1DDVfMOCK_-24" value="" style="line;strokeWidth=1;fillColor=none;align=left;verticalAlign=middle;spacingTop=-1;spacingLeft=3;spacingRight=3;rotatable=0;labelPosition=right;points=[];portConstraint=eastwest;strokeColor=inherit;" parent="IVzA2mqmO_1DDVfMOCK_-22" vertex="1">
          <mxGeometry y="52" width="160" height="8" as="geometry" />
        </mxCell>
        <mxCell id="IVzA2mqmO_1DDVfMOCK_-25" value="+ method(type): type" style="text;strokeColor=none;fillColor=none;align=left;verticalAlign=top;spacingLeft=4;spacingRight=4;overflow=hidden;rotatable=0;points=[[0,0.5],[1,0.5]];portConstraint=eastwest;whiteSpace=wrap;html=1;" parent="IVzA2mqmO_1DDVfMOCK_-22" vertex="1">
          <mxGeometry y="60" width="160" height="26" as="geometry" />
        </mxCell>
        <mxCell id="IVzA2mqmO_1DDVfMOCK_-30" value="" style="endArrow=diamondThin;endFill=0;endSize=24;html=1;rounded=0;entryX=1.017;entryY=-0.209;entryDx=0;entryDy=0;exitX=-0.015;exitY=1;exitDx=0;exitDy=0;exitPerimeter=0;entryPerimeter=0;" parent="1" source="q0Xq8yBIOzjxn-xwMt5K-35" target="yLif0t2-L7paf6NupwVh-3" edge="1">
          <mxGeometry width="160" relative="1" as="geometry">
            <mxPoint x="580" y="260" as="sourcePoint" />
            <mxPoint x="740" y="260" as="targetPoint" />
            <Array as="points">
              <mxPoint x="770" y="116" />
              <mxPoint x="770" y="273" />
            </Array>
          </mxGeometry>
        </mxCell>
        <mxCell id="IVzA2mqmO_1DDVfMOCK_-31" value="" style="endArrow=block;endSize=16;endFill=0;html=1;rounded=0;entryX=0.5;entryY=0;entryDx=0;entryDy=0;exitX=1;exitY=0.5;exitDx=0;exitDy=0;" parent="1" source="q0Xq8yBIOzjxn-xwMt5K-35" target="yLif0t2-L7paf6NupwVh-15" edge="1">
          <mxGeometry width="160" relative="1" as="geometry">
            <mxPoint x="1430" y="150" as="sourcePoint" />
            <mxPoint x="1430" y="234" as="targetPoint" />
            <Array as="points">
              <mxPoint x="1775" y="103" />
            </Array>
          </mxGeometry>
        </mxCell>
        <mxCell id="IVzA2mqmO_1DDVfMOCK_-32" value="" style="endArrow=classic;html=1;rounded=0;" parent="1" edge="1">
          <mxGeometry width="50" height="50" relative="1" as="geometry">
            <mxPoint x="500" y="320" as="sourcePoint" />
            <mxPoint x="390" y="320" as="targetPoint" />
          </mxGeometry>
        </mxCell>
        <mxCell id="IVzA2mqmO_1DDVfMOCK_-33" value="controls" style="text;html=1;align=center;verticalAlign=middle;whiteSpace=wrap;rounded=0;" parent="1" vertex="1">
          <mxGeometry x="160" y="470" width="120" height="30" as="geometry" />
        </mxCell>
        <mxCell id="IVzA2mqmO_1DDVfMOCK_-34" value="Membership" style="swimlane;fontStyle=1;align=center;verticalAlign=top;childLayout=stackLayout;horizontal=1;startSize=26;horizontalStack=0;resizeParent=1;resizeParentMax=0;resizeLast=0;collapsible=1;marginBottom=0;whiteSpace=wrap;html=1;" parent="1" vertex="1">
          <mxGeometry x="-80" y="164" width="160" height="86" as="geometry" />
        </mxCell>
        <mxCell id="IVzA2mqmO_1DDVfMOCK_-35" value="+ field: type" style="text;strokeColor=none;fillColor=none;align=left;verticalAlign=top;spacingLeft=4;spacingRight=4;overflow=hidden;rotatable=0;points=[[0,0.5],[1,0.5]];portConstraint=eastwest;whiteSpace=wrap;html=1;" parent="IVzA2mqmO_1DDVfMOCK_-34" vertex="1">
          <mxGeometry y="26" width="160" height="26" as="geometry" />
        </mxCell>
        <mxCell id="IVzA2mqmO_1DDVfMOCK_-36" value="" style="line;strokeWidth=1;fillColor=none;align=left;verticalAlign=middle;spacingTop=-1;spacingLeft=3;spacingRight=3;rotatable=0;labelPosition=right;points=[];portConstraint=eastwest;strokeColor=inherit;" parent="IVzA2mqmO_1DDVfMOCK_-34" vertex="1">
          <mxGeometry y="52" width="160" height="8" as="geometry" />
        </mxCell>
        <mxCell id="IVzA2mqmO_1DDVfMOCK_-37" value="+ method(type): type" style="text;strokeColor=none;fillColor=none;align=left;verticalAlign=top;spacingLeft=4;spacingRight=4;overflow=hidden;rotatable=0;points=[[0,0.5],[1,0.5]];portConstraint=eastwest;whiteSpace=wrap;html=1;" parent="IVzA2mqmO_1DDVfMOCK_-34" vertex="1">
          <mxGeometry y="60" width="160" height="26" as="geometry" />
        </mxCell>
        <mxCell id="IVzA2mqmO_1DDVfMOCK_-38" value="" style="endArrow=classic;html=1;rounded=0;exitX=0.657;exitY=1.071;exitDx=0;exitDy=0;entryX=0.155;entryY=-0.013;entryDx=0;entryDy=0;exitPerimeter=0;entryPerimeter=0;" parent="1" source="IVzA2mqmO_1DDVfMOCK_-37" target="IVzA2mqmO_1DDVfMOCK_-22" edge="1">
          <mxGeometry width="50" height="50" relative="1" as="geometry">
            <mxPoint x="64" y="214" as="sourcePoint" />
            <mxPoint x="158" y="198" as="targetPoint" />
          </mxGeometry>
        </mxCell>
        <mxCell id="IVzA2mqmO_1DDVfMOCK_-39" value="pays" style="text;html=1;align=center;verticalAlign=middle;whiteSpace=wrap;rounded=0;" parent="1" vertex="1">
          <mxGeometry x="-10" y="257" width="120" height="30" as="geometry" />
        </mxCell>
        <mxCell id="IVzA2mqmO_1DDVfMOCK_-42" value="" style="endArrow=diamondThin;endFill=0;endSize=24;html=1;rounded=0;exitX=0.563;exitY=-0.006;exitDx=0;exitDy=0;exitPerimeter=0;" parent="1" source="q0Xq8yBIOzjxn-xwMt5K-17" edge="1">
          <mxGeometry width="160" relative="1" as="geometry">
            <mxPoint x="820" y="-310" as="sourcePoint" />
            <mxPoint x="757" y="-329" as="targetPoint" />
          </mxGeometry>
        </mxCell>
        <mxCell id="IVzA2mqmO_1DDVfMOCK_-44" value="" style="endArrow=diamondThin;endFill=0;endSize=24;html=1;rounded=0;entryX=0.41;entryY=1.117;entryDx=0;entryDy=0;exitX=0.5;exitY=0;exitDx=0;exitDy=0;entryPerimeter=0;" parent="1" source="q0Xq8yBIOzjxn-xwMt5K-115" target="q0Xq8yBIOzjxn-xwMt5K-91" edge="1">
          <mxGeometry width="160" relative="1" as="geometry">
            <mxPoint x="-540" y="60" as="sourcePoint" />
            <mxPoint x="-380" y="60" as="targetPoint" />
            <Array as="points">
              <mxPoint x="-600" y="80" />
              <mxPoint x="-475" y="80" />
            </Array>
          </mxGeometry>
        </mxCell>
        <mxCell id="IVzA2mqmO_1DDVfMOCK_-54" value="" style="endArrow=classic;html=1;rounded=0;entryX=0.999;entryY=0.909;entryDx=0;entryDy=0;entryPerimeter=0;" parent="1" target="yLif0t2-L7paf6NupwVh-3" edge="1">
          <mxGeometry width="50" height="50" relative="1" as="geometry">
            <mxPoint x="800" y="302" as="sourcePoint" />
            <mxPoint x="670" y="300" as="targetPoint" />
          </mxGeometry>
        </mxCell>
        <mxCell id="IVzA2mqmO_1DDVfMOCK_-55" value="issues" style="text;html=1;align=center;verticalAlign=middle;whiteSpace=wrap;rounded=0;" parent="1" vertex="1">
          <mxGeometry x="670" y="347" width="120" height="30" as="geometry" />
        </mxCell>
        <mxCell id="IVzA2mqmO_1DDVfMOCK_-59" value="holds" style="text;html=1;align=center;verticalAlign=middle;whiteSpace=wrap;rounded=0;" parent="1" vertex="1">
          <mxGeometry x="120" y="210" width="130" height="20" as="geometry" />
        </mxCell>
        <mxCell id="IVzA2mqmO_1DDVfMOCK_-60" value="" style="endArrow=classic;html=1;rounded=0;exitX=0;exitY=0.5;exitDx=0;exitDy=0;entryX=1;entryY=0.5;entryDx=0;entryDy=0;" parent="1" source="yLif0t2-L7paf6NupwVh-11" target="yLif0t2-L7paf6NupwVh-53" edge="1">
          <mxGeometry width="50" height="50" relative="1" as="geometry">
            <mxPoint x="1653" y="732" as="sourcePoint" />
            <mxPoint x="1370" y="900" as="targetPoint" />
            <Array as="points">
              <mxPoint x="1650" y="529" />
              <mxPoint x="1650" y="600" />
              <mxPoint x="1440" y="600" />
              <mxPoint x="1440" y="989" />
            </Array>
          </mxGeometry>
        </mxCell>
        <mxCell id="IVzA2mqmO_1DDVfMOCK_-61" value="controls" style="text;html=1;align=center;verticalAlign=middle;whiteSpace=wrap;rounded=0;" parent="1" vertex="1">
          <mxGeometry x="1410" y="820" width="120" height="30" as="geometry" />
        </mxCell>
        <mxCell id="IVzA2mqmO_1DDVfMOCK_-63" value="makes" style="text;html=1;align=center;verticalAlign=middle;whiteSpace=wrap;rounded=0;" parent="1" vertex="1">
          <mxGeometry x="383" y="321" width="120" height="30" as="geometry" />
        </mxCell>
        <mxCell id="IVzA2mqmO_1DDVfMOCK_-65" value="" style="endArrow=block;endSize=16;endFill=0;html=1;rounded=0;exitX=1;exitY=0.5;exitDx=0;exitDy=0;" parent="1" source="q0Xq8yBIOzjxn-xwMt5K-116" edge="1">
          <mxGeometry width="160" relative="1" as="geometry">
            <mxPoint x="-470" y="140" as="sourcePoint" />
            <mxPoint x="-350" y="120" as="targetPoint" />
            <Array as="points">
              <mxPoint x="-400" y="165" />
              <mxPoint x="-400" y="120" />
            </Array>
          </mxGeometry>
        </mxCell>
        <mxCell id="IVzA2mqmO_1DDVfMOCK_-67" value="" style="endArrow=diamondThin;endFill=0;endSize=24;html=1;rounded=0;entryX=1;entryY=0.5;entryDx=0;entryDy=0;exitX=0.5;exitY=0;exitDx=0;exitDy=0;" parent="1" source="IVzA2mqmO_1DDVfMOCK_-34" target="q0Xq8yBIOzjxn-xwMt5K-40" edge="1">
          <mxGeometry width="160" relative="1" as="geometry">
            <mxPoint x="-120" y="284" as="sourcePoint" />
            <mxPoint x="12" y="130" as="targetPoint" />
            <Array as="points">
              <mxPoint y="105" />
              <mxPoint x="-80" y="105" />
            </Array>
          </mxGeometry>
        </mxCell>
        <mxCell id="IVzA2mqmO_1DDVfMOCK_-68" value="&lt;i&gt;«interface»&lt;br&gt;&lt;b&gt;Add&lt;/b&gt;&lt;/i&gt;" style="html=1;whiteSpace=wrap;" parent="1" vertex="1">
          <mxGeometry x="-20" y="710" width="110" height="50" as="geometry" />
        </mxCell>
        <mxCell id="IVzA2mqmO_1DDVfMOCK_-69" value="«interface»&lt;br&gt;&lt;b&gt;Drop&lt;/b&gt;" style="html=1;whiteSpace=wrap;" parent="1" vertex="1">
          <mxGeometry x="-40" y="827" width="110" height="50" as="geometry" />
        </mxCell>
        <mxCell id="IVzA2mqmO_1DDVfMOCK_-70" value="«interface»&lt;br&gt;&lt;b&gt;Delete&lt;/b&gt;" style="html=1;whiteSpace=wrap;" parent="1" vertex="1">
          <mxGeometry x="310" y="850" width="110" height="50" as="geometry" />
        </mxCell>
        <mxCell id="IVzA2mqmO_1DDVfMOCK_-71" value="" style="endArrow=block;dashed=1;endFill=0;endSize=12;html=1;rounded=0;exitX=0.81;exitY=1.175;exitDx=0;exitDy=0;entryX=0;entryY=0.5;entryDx=0;entryDy=0;exitPerimeter=0;" parent="1" source="q0Xq8yBIOzjxn-xwMt5K-42" target="IVzA2mqmO_1DDVfMOCK_-68" edge="1">
          <mxGeometry width="160" relative="1" as="geometry">
            <mxPoint x="-270" y="430" as="sourcePoint" />
            <mxPoint x="465" y="340" as="targetPoint" />
            <Array as="points">
              <mxPoint x="-215" y="480" />
              <mxPoint x="-80" y="480" />
              <mxPoint x="-80" y="735" />
            </Array>
          </mxGeometry>
        </mxCell>
        <mxCell id="IVzA2mqmO_1DDVfMOCK_-72" value="" style="endArrow=block;dashed=1;endFill=0;endSize=12;html=1;rounded=0;exitX=0.953;exitY=1.043;exitDx=0;exitDy=0;entryX=0.25;entryY=0;entryDx=0;entryDy=0;exitPerimeter=0;" parent="1" source="q0Xq8yBIOzjxn-xwMt5K-42" target="IVzA2mqmO_1DDVfMOCK_-70" edge="1">
          <mxGeometry width="160" relative="1" as="geometry">
            <mxPoint x="-270" y="370" as="sourcePoint" />
            <mxPoint x="-203" y="570" as="targetPoint" />
            <Array as="points">
              <mxPoint x="-190" y="440" />
              <mxPoint x="-40" y="440" />
              <mxPoint x="-40" y="600" />
              <mxPoint x="340" y="600" />
            </Array>
          </mxGeometry>
        </mxCell>
        <mxCell id="IVzA2mqmO_1DDVfMOCK_-73" value="" style="endArrow=block;dashed=1;endFill=0;endSize=12;html=1;rounded=0;entryX=0;entryY=0.25;entryDx=0;entryDy=0;" parent="1" target="IVzA2mqmO_1DDVfMOCK_-69" edge="1">
          <mxGeometry width="160" relative="1" as="geometry">
            <mxPoint x="-240" y="157" as="sourcePoint" />
            <mxPoint x="-230" y="703" as="targetPoint" />
            <Array as="points">
              <mxPoint x="-240" y="520" />
              <mxPoint x="-130" y="520" />
              <mxPoint x="-130" y="840" />
            </Array>
          </mxGeometry>
        </mxCell>
        <mxCell id="IVzA2mqmO_1DDVfMOCK_-74" value="" style="endArrow=block;dashed=1;endFill=0;endSize=12;html=1;rounded=0;exitX=0.463;exitY=1.037;exitDx=0;exitDy=0;exitPerimeter=0;entryX=0;entryY=0.75;entryDx=0;entryDy=0;" parent="1" source="q0Xq8yBIOzjxn-xwMt5K-118" target="q0Xq8yBIOzjxn-xwMt5K-67" edge="1">
          <mxGeometry width="160" relative="1" as="geometry">
            <mxPoint x="-620" y="380" as="sourcePoint" />
            <mxPoint x="-560" y="743" as="targetPoint" />
            <Array as="points">
              <mxPoint x="-610" y="720" />
              <mxPoint x="-220" y="720" />
              <mxPoint x="-220" y="1002" />
            </Array>
          </mxGeometry>
        </mxCell>
        <mxCell id="IVzA2mqmO_1DDVfMOCK_-75" value="" style="endArrow=block;dashed=1;endFill=0;endSize=12;html=1;rounded=0;exitX=0.546;exitY=1.043;exitDx=0;exitDy=0;exitPerimeter=0;entryX=0.25;entryY=0;entryDx=0;entryDy=0;" parent="1" source="q0Xq8yBIOzjxn-xwMt5K-42" target="q0Xq8yBIOzjxn-xwMt5K-67" edge="1">
          <mxGeometry width="160" relative="1" as="geometry">
            <mxPoint x="-350" y="190" as="sourcePoint" />
            <mxPoint x="-290" y="553" as="targetPoint" />
            <Array as="points">
              <mxPoint x="-260" y="560" />
              <mxPoint x="-160" y="560" />
            </Array>
          </mxGeometry>
        </mxCell>
        <mxCell id="IVzA2mqmO_1DDVfMOCK_-81" value="&lt;div&gt;Loan&lt;/div&gt;" style="swimlane;fontStyle=1;align=center;verticalAlign=top;childLayout=stackLayout;horizontal=1;startSize=26;horizontalStack=0;resizeParent=1;resizeParentMax=0;resizeLast=0;collapsible=1;marginBottom=0;whiteSpace=wrap;html=1;" parent="1" vertex="1">
          <mxGeometry x="1099.76" y="500" width="160" height="86" as="geometry" />
        </mxCell>
        <mxCell id="IVzA2mqmO_1DDVfMOCK_-82" value="+ field: type" style="text;strokeColor=none;fillColor=none;align=left;verticalAlign=top;spacingLeft=4;spacingRight=4;overflow=hidden;rotatable=0;points=[[0,0.5],[1,0.5]];portConstraint=eastwest;whiteSpace=wrap;html=1;" parent="IVzA2mqmO_1DDVfMOCK_-81" vertex="1">
          <mxGeometry y="26" width="160" height="26" as="geometry" />
        </mxCell>
        <mxCell id="IVzA2mqmO_1DDVfMOCK_-83" value="" style="line;strokeWidth=1;fillColor=none;align=left;verticalAlign=middle;spacingTop=-1;spacingLeft=3;spacingRight=3;rotatable=0;labelPosition=right;points=[];portConstraint=eastwest;strokeColor=inherit;" parent="IVzA2mqmO_1DDVfMOCK_-81" vertex="1">
          <mxGeometry y="52" width="160" height="8" as="geometry" />
        </mxCell>
        <mxCell id="IVzA2mqmO_1DDVfMOCK_-84" value="+ method(type): type" style="text;strokeColor=none;fillColor=none;align=left;verticalAlign=top;spacingLeft=4;spacingRight=4;overflow=hidden;rotatable=0;points=[[0,0.5],[1,0.5]];portConstraint=eastwest;whiteSpace=wrap;html=1;" parent="IVzA2mqmO_1DDVfMOCK_-81" vertex="1">
          <mxGeometry y="60" width="160" height="26" as="geometry" />
        </mxCell>
        <mxCell id="AgzgaEjoR8yFsVKr8jUF-2" value="&lt;div&gt;Accountant&lt;/div&gt;" style="swimlane;fontStyle=1;align=center;verticalAlign=top;childLayout=stackLayout;horizontal=1;startSize=26;horizontalStack=0;resizeParent=1;resizeParentMax=0;resizeLast=0;collapsible=1;marginBottom=0;whiteSpace=wrap;html=1;" parent="1" vertex="1">
          <mxGeometry x="1695" y="342" width="160" height="86" as="geometry" />
        </mxCell>
        <mxCell id="AgzgaEjoR8yFsVKr8jUF-3" value="+ field: type" style="text;strokeColor=none;fillColor=none;align=left;verticalAlign=top;spacingLeft=4;spacingRight=4;overflow=hidden;rotatable=0;points=[[0,0.5],[1,0.5]];portConstraint=eastwest;whiteSpace=wrap;html=1;" parent="AgzgaEjoR8yFsVKr8jUF-2" vertex="1">
          <mxGeometry y="26" width="160" height="26" as="geometry" />
        </mxCell>
        <mxCell id="AgzgaEjoR8yFsVKr8jUF-4" value="" style="line;strokeWidth=1;fillColor=none;align=left;verticalAlign=middle;spacingTop=-1;spacingLeft=3;spacingRight=3;rotatable=0;labelPosition=right;points=[];portConstraint=eastwest;strokeColor=inherit;" parent="AgzgaEjoR8yFsVKr8jUF-2" vertex="1">
          <mxGeometry y="52" width="160" height="8" as="geometry" />
        </mxCell>
        <mxCell id="AgzgaEjoR8yFsVKr8jUF-5" value="+ method(type): type" style="text;strokeColor=none;fillColor=none;align=left;verticalAlign=top;spacingLeft=4;spacingRight=4;overflow=hidden;rotatable=0;points=[[0,0.5],[1,0.5]];portConstraint=eastwest;whiteSpace=wrap;html=1;" parent="AgzgaEjoR8yFsVKr8jUF-2" vertex="1">
          <mxGeometry y="60" width="160" height="26" as="geometry" />
        </mxCell>
        <mxCell id="AgzgaEjoR8yFsVKr8jUF-8" value="" style="endArrow=block;endSize=16;endFill=0;html=1;rounded=0;entryX=0.5;entryY=0;entryDx=0;entryDy=0;exitX=0.508;exitY=0.931;exitDx=0;exitDy=0;exitPerimeter=0;" parent="1" source="yLif0t2-L7paf6NupwVh-18" target="AgzgaEjoR8yFsVKr8jUF-2" edge="1">
          <mxGeometry width="160" relative="1" as="geometry">
            <mxPoint x="1780" y="280" as="sourcePoint" />
            <mxPoint x="1780" y="330" as="targetPoint" />
            <Array as="points" />
          </mxGeometry>
        </mxCell>
        <mxCell id="IVzA2mqmO_1DDVfMOCK_-86" value="" style="endArrow=classic;html=1;rounded=0;exitX=0;exitY=0.5;exitDx=0;exitDy=0;entryX=1;entryY=0.5;entryDx=0;entryDy=0;" parent="1" source="AgzgaEjoR8yFsVKr8jUF-3" target="IVzA2mqmO_1DDVfMOCK_-82" edge="1">
          <mxGeometry width="50" height="50" relative="1" as="geometry">
            <mxPoint x="1855" y="460" as="sourcePoint" />
            <mxPoint x="1560" y="699" as="targetPoint" />
            <Array as="points">
              <mxPoint x="1550" y="381" />
              <mxPoint x="1550" y="540" />
            </Array>
          </mxGeometry>
        </mxCell>
        <mxCell id="IVzA2mqmO_1DDVfMOCK_-87" value="checks" style="text;html=1;align=center;verticalAlign=middle;whiteSpace=wrap;rounded=0;" parent="1" vertex="1">
          <mxGeometry x="1440" y="510" width="120" height="30" as="geometry" />
        </mxCell>
        <mxCell id="IVzA2mqmO_1DDVfMOCK_-89" value="" style="endArrow=diamondThin;endFill=0;endSize=24;html=1;rounded=0;exitX=1;exitY=0.5;exitDx=0;exitDy=0;entryX=0;entryY=0.5;entryDx=0;entryDy=0;" parent="1" source="yLif0t2-L7paf6NupwVh-20" target="yLif0t2-L7paf6NupwVh-29" edge="1">
          <mxGeometry width="160" relative="1" as="geometry">
            <mxPoint x="1010" y="340" as="sourcePoint" />
            <mxPoint x="1135" y="406.38" as="targetPoint" />
            <Array as="points">
              <mxPoint x="1020" y="275" />
              <mxPoint x="1020" y="240" />
            </Array>
          </mxGeometry>
        </mxCell>
        <mxCell id="AgzgaEjoR8yFsVKr8jUF-10" value="«interface»&lt;br&gt;&lt;b&gt;Organize&lt;/b&gt;" style="html=1;whiteSpace=wrap;" parent="1" vertex="1">
          <mxGeometry x="1250" y="726" width="110" height="50" as="geometry" />
        </mxCell>
        <mxCell id="AgzgaEjoR8yFsVKr8jUF-11" value="" style="endArrow=block;dashed=1;endFill=0;endSize=12;html=1;rounded=0;exitX=0;exitY=0.5;exitDx=0;exitDy=0;entryX=1;entryY=0;entryDx=0;entryDy=0;" parent="1" source="yLif0t2-L7paf6NupwVh-18" target="AgzgaEjoR8yFsVKr8jUF-10" edge="1">
          <mxGeometry width="160" relative="1" as="geometry">
            <mxPoint x="1470" y="550" as="sourcePoint" />
            <mxPoint x="1014" y="439" as="targetPoint" />
            <Array as="points">
              <mxPoint x="1600" y="263" />
              <mxPoint x="1600" y="560" />
              <mxPoint x="1360" y="560" />
            </Array>
          </mxGeometry>
        </mxCell>
        <mxCell id="AgzgaEjoR8yFsVKr8jUF-12" value="" style="endArrow=block;dashed=1;endFill=0;endSize=12;html=1;rounded=0;" parent="1" edge="1">
          <mxGeometry width="160" relative="1" as="geometry">
            <mxPoint x="1280" y="950" as="sourcePoint" />
            <mxPoint x="1280" y="780" as="targetPoint" />
          </mxGeometry>
        </mxCell>
        <mxCell id="IVzA2mqmO_1DDVfMOCK_-90" value="&lt;div&gt;Publisher&lt;/div&gt;" style="swimlane;fontStyle=1;align=center;verticalAlign=top;childLayout=stackLayout;horizontal=1;startSize=26;horizontalStack=0;resizeParent=1;resizeParentMax=0;resizeLast=0;collapsible=1;marginBottom=0;whiteSpace=wrap;html=1;" parent="1" vertex="1">
          <mxGeometry x="1060" y="306.46" width="160" height="86" as="geometry" />
        </mxCell>
        <mxCell id="IVzA2mqmO_1DDVfMOCK_-91" value="+ field: type" style="text;strokeColor=none;fillColor=none;align=left;verticalAlign=top;spacingLeft=4;spacingRight=4;overflow=hidden;rotatable=0;points=[[0,0.5],[1,0.5]];portConstraint=eastwest;whiteSpace=wrap;html=1;" parent="IVzA2mqmO_1DDVfMOCK_-90" vertex="1">
          <mxGeometry y="26" width="160" height="26" as="geometry" />
        </mxCell>
        <mxCell id="IVzA2mqmO_1DDVfMOCK_-92" value="" style="line;strokeWidth=1;fillColor=none;align=left;verticalAlign=middle;spacingTop=-1;spacingLeft=3;spacingRight=3;rotatable=0;labelPosition=right;points=[];portConstraint=eastwest;strokeColor=inherit;" parent="IVzA2mqmO_1DDVfMOCK_-90" vertex="1">
          <mxGeometry y="52" width="160" height="8" as="geometry" />
        </mxCell>
        <mxCell id="IVzA2mqmO_1DDVfMOCK_-93" value="+ method(type): type" style="text;strokeColor=none;fillColor=none;align=left;verticalAlign=top;spacingLeft=4;spacingRight=4;overflow=hidden;rotatable=0;points=[[0,0.5],[1,0.5]];portConstraint=eastwest;whiteSpace=wrap;html=1;" parent="IVzA2mqmO_1DDVfMOCK_-90" vertex="1">
          <mxGeometry y="60" width="160" height="26" as="geometry" />
        </mxCell>
        <mxCell id="AgzgaEjoR8yFsVKr8jUF-15" value="&lt;p style=&quot;margin:0px;margin-top:4px;text-align:center;&quot;&gt;&lt;i&gt;&amp;lt;&amp;lt;enumeration&amp;gt;&amp;gt;&lt;br&gt;&lt;b&gt;Category&lt;/b&gt;&lt;/i&gt;&lt;/p&gt;&lt;hr size=&quot;1&quot; style=&quot;border-style:solid;&quot;&gt;&lt;p style=&quot;margin:0px;margin-left:4px;&quot;&gt;&lt;/p&gt;&lt;p style=&quot;margin:0px;margin-left:4px;&quot;&gt;magazine&lt;/p&gt;&lt;p style=&quot;margin:0px;margin-left:4px;&quot;&gt;novel&lt;/p&gt;" style="verticalAlign=top;align=left;overflow=fill;html=1;whiteSpace=wrap;" parent="1" vertex="1">
          <mxGeometry x="1290" y="347" width="108.5" height="76" as="geometry" />
        </mxCell>
        <mxCell id="IVzA2mqmO_1DDVfMOCK_-98" value="LibraryDatabase" style="swimlane;fontStyle=1;align=center;verticalAlign=top;childLayout=stackLayout;horizontal=1;startSize=26;horizontalStack=0;resizeParent=1;resizeParentMax=0;resizeLast=0;collapsible=1;marginBottom=0;whiteSpace=wrap;html=1;" parent="1" vertex="1">
          <mxGeometry x="610" y="484" width="160" height="86" as="geometry" />
        </mxCell>
        <mxCell id="IVzA2mqmO_1DDVfMOCK_-99" value="+ field: type" style="text;strokeColor=none;fillColor=none;align=left;verticalAlign=top;spacingLeft=4;spacingRight=4;overflow=hidden;rotatable=0;points=[[0,0.5],[1,0.5]];portConstraint=eastwest;whiteSpace=wrap;html=1;" parent="IVzA2mqmO_1DDVfMOCK_-98" vertex="1">
          <mxGeometry y="26" width="160" height="26" as="geometry" />
        </mxCell>
        <mxCell id="IVzA2mqmO_1DDVfMOCK_-100" value="" style="line;strokeWidth=1;fillColor=none;align=left;verticalAlign=middle;spacingTop=-1;spacingLeft=3;spacingRight=3;rotatable=0;labelPosition=right;points=[];portConstraint=eastwest;strokeColor=inherit;" parent="IVzA2mqmO_1DDVfMOCK_-98" vertex="1">
          <mxGeometry y="52" width="160" height="8" as="geometry" />
        </mxCell>
        <mxCell id="IVzA2mqmO_1DDVfMOCK_-101" value="+ method(type): type" style="text;strokeColor=none;fillColor=none;align=left;verticalAlign=top;spacingLeft=4;spacingRight=4;overflow=hidden;rotatable=0;points=[[0,0.5],[1,0.5]];portConstraint=eastwest;whiteSpace=wrap;html=1;" parent="IVzA2mqmO_1DDVfMOCK_-98" vertex="1">
          <mxGeometry y="60" width="160" height="26" as="geometry" />
        </mxCell>
        <mxCell id="IVzA2mqmO_1DDVfMOCK_-108" value="" style="endArrow=classic;html=1;rounded=0;" parent="1" edge="1">
          <mxGeometry width="50" height="50" relative="1" as="geometry">
            <mxPoint x="560" y="250" as="sourcePoint" />
            <mxPoint x="83" y="230" as="targetPoint" />
            <Array as="points">
              <mxPoint x="560" y="230" />
            </Array>
          </mxGeometry>
        </mxCell>
        <mxCell id="AgzgaEjoR8yFsVKr8jUF-17" value="" style="endArrow=block;dashed=1;endFill=0;endSize=12;html=1;rounded=0;entryX=1;entryY=0.5;entryDx=0;entryDy=0;exitX=-0.011;exitY=0.991;exitDx=0;exitDy=0;exitPerimeter=0;" parent="1" source="IVzA2mqmO_1DDVfMOCK_-120" target="IVzA2mqmO_1DDVfMOCK_-70" edge="1">
          <mxGeometry width="160" relative="1" as="geometry">
            <mxPoint x="754" y="494" as="sourcePoint" />
            <mxPoint x="80" y="860" as="targetPoint" />
            <Array as="points">
              <mxPoint x="507" y="875" />
            </Array>
          </mxGeometry>
        </mxCell>
        <mxCell id="AgzgaEjoR8yFsVKr8jUF-18" value="" style="endArrow=block;dashed=1;endFill=0;endSize=12;html=1;rounded=0;entryX=0;entryY=0.75;entryDx=0;entryDy=0;exitX=0.577;exitY=1.094;exitDx=0;exitDy=0;exitPerimeter=0;" parent="1" source="IVzA2mqmO_1DDVfMOCK_-120" target="q0Xq8yBIOzjxn-xwMt5K-72" edge="1">
          <mxGeometry width="160" relative="1" as="geometry">
            <mxPoint x="790" y="490" as="sourcePoint" />
            <mxPoint x="918" y="737" as="targetPoint" />
            <Array as="points">
              <mxPoint x="643" y="920" />
            </Array>
          </mxGeometry>
        </mxCell>
        <mxCell id="IVzA2mqmO_1DDVfMOCK_-112" value="" style="endArrow=classic;html=1;rounded=0;entryX=0.85;entryY=-0.018;entryDx=0;entryDy=0;entryPerimeter=0;" parent="1" target="q0Xq8yBIOzjxn-xwMt5K-166" edge="1">
          <mxGeometry width="50" height="50" relative="1" as="geometry">
            <mxPoint x="583" y="340" as="sourcePoint" />
            <mxPoint x="445" y="596" as="targetPoint" />
            <Array as="points">
              <mxPoint x="583" y="500" />
              <mxPoint x="120" y="500" />
              <mxPoint x="-379" y="500" />
            </Array>
          </mxGeometry>
        </mxCell>
        <mxCell id="AgzgaEjoR8yFsVKr8jUF-16" value="" style="endArrow=block;dashed=1;endFill=0;endSize=12;html=1;rounded=0;entryX=0;entryY=0.5;entryDx=0;entryDy=0;exitX=1;exitY=0.5;exitDx=0;exitDy=0;" parent="1" source="IVzA2mqmO_1DDVfMOCK_-120" target="q0Xq8yBIOzjxn-xwMt5K-71" edge="1">
          <mxGeometry width="160" relative="1" as="geometry">
            <mxPoint x="830" y="500" as="sourcePoint" />
            <mxPoint x="710" y="650" as="targetPoint" />
          </mxGeometry>
        </mxCell>
        <mxCell id="IVzA2mqmO_1DDVfMOCK_-109" value="" style="endArrow=block;dashed=1;endFill=0;endSize=12;html=1;rounded=0;exitX=0;exitY=0.5;exitDx=0;exitDy=0;entryX=1;entryY=0.5;entryDx=0;entryDy=0;" parent="1" source="IVzA2mqmO_1DDVfMOCK_-118" target="IVzA2mqmO_1DDVfMOCK_-68" edge="1">
          <mxGeometry width="160" relative="1" as="geometry">
            <mxPoint x="490" y="610" as="sourcePoint" />
            <mxPoint x="937" y="1180" as="targetPoint" />
          </mxGeometry>
        </mxCell>
        <mxCell id="IVzA2mqmO_1DDVfMOCK_-110" value="" style="endArrow=classic;html=1;rounded=0;exitX=0.831;exitY=1.128;exitDx=0;exitDy=0;exitPerimeter=0;" parent="1" source="yLif0t2-L7paf6NupwVh-5" edge="1">
          <mxGeometry width="50" height="50" relative="1" as="geometry">
            <mxPoint x="620" y="340" as="sourcePoint" />
            <mxPoint x="636" y="482" as="targetPoint" />
            <Array as="points">
              <mxPoint x="636" y="450" />
            </Array>
          </mxGeometry>
        </mxCell>
        <mxCell id="IVzA2mqmO_1DDVfMOCK_-111" value="" style="endArrow=classic;html=1;rounded=0;exitX=0.532;exitY=1.174;exitDx=0;exitDy=0;entryX=0.5;entryY=0;entryDx=0;entryDy=0;exitPerimeter=0;" parent="1" source="yLif0t2-L7paf6NupwVh-22" target="IVzA2mqmO_1DDVfMOCK_-98" edge="1">
          <mxGeometry width="50" height="50" relative="1" as="geometry">
            <mxPoint x="770" y="360" as="sourcePoint" />
            <mxPoint x="815" y="466" as="targetPoint" />
            <Array as="points">
              <mxPoint x="885" y="460" />
              <mxPoint x="690" y="460" />
            </Array>
          </mxGeometry>
        </mxCell>
        <mxCell id="AgzgaEjoR8yFsVKr8jUF-19" value="" style="endArrow=block;dashed=1;endFill=0;endSize=12;html=1;rounded=0;entryX=0;entryY=0;entryDx=0;entryDy=0;exitX=1.014;exitY=0.179;exitDx=0;exitDy=0;exitPerimeter=0;" parent="1" source="IVzA2mqmO_1DDVfMOCK_-118" target="AgzgaEjoR8yFsVKr8jUF-10" edge="1">
          <mxGeometry width="160" relative="1" as="geometry">
            <mxPoint x="700" y="676" as="sourcePoint" />
            <mxPoint x="1310" y="670" as="targetPoint" />
          </mxGeometry>
        </mxCell>
        <mxCell id="AgzgaEjoR8yFsVKr8jUF-20" value="" style="endArrow=block;dashed=1;endFill=0;endSize=12;html=1;rounded=0;exitX=0.004;exitY=0.231;exitDx=0;exitDy=0;entryX=1;entryY=0.5;entryDx=0;entryDy=0;exitPerimeter=0;" parent="1" source="IVzA2mqmO_1DDVfMOCK_-120" target="IVzA2mqmO_1DDVfMOCK_-69" edge="1">
          <mxGeometry width="160" relative="1" as="geometry">
            <mxPoint x="494" y="544" as="sourcePoint" />
            <mxPoint x="-60" y="860" as="targetPoint" />
            <Array as="points">
              <mxPoint x="240" y="760" />
              <mxPoint x="240" y="852" />
            </Array>
          </mxGeometry>
        </mxCell>
        <mxCell id="AgzgaEjoR8yFsVKr8jUF-21" value="" style="endArrow=block;dashed=1;endFill=0;endSize=12;html=1;rounded=0;entryX=1;entryY=0.25;entryDx=0;entryDy=0;exitX=0.14;exitY=1.128;exitDx=0;exitDy=0;exitPerimeter=0;" parent="1" source="IVzA2mqmO_1DDVfMOCK_-120" target="q0Xq8yBIOzjxn-xwMt5K-67" edge="1">
          <mxGeometry width="160" relative="1" as="geometry">
            <mxPoint x="370" y="580" as="sourcePoint" />
            <mxPoint x="-130" y="940" as="targetPoint" />
            <Array as="points">
              <mxPoint x="542" y="980" />
            </Array>
          </mxGeometry>
        </mxCell>
        <mxCell id="IVzA2mqmO_1DDVfMOCK_-117" value="CertificateIssues" style="swimlane;fontStyle=1;align=center;verticalAlign=top;childLayout=stackLayout;horizontal=1;startSize=30;horizontalStack=0;resizeParent=1;resizeParentMax=0;resizeLast=0;collapsible=1;marginBottom=0;whiteSpace=wrap;html=1;" parent="1" vertex="1">
          <mxGeometry x="510" y="690" width="230" height="90" as="geometry" />
        </mxCell>
        <mxCell id="IVzA2mqmO_1DDVfMOCK_-118" value="+ field: type" style="text;strokeColor=none;fillColor=none;align=left;verticalAlign=top;spacingLeft=4;spacingRight=4;overflow=hidden;rotatable=0;points=[[0,0.5],[1,0.5]];portConstraint=eastwest;whiteSpace=wrap;html=1;" parent="IVzA2mqmO_1DDVfMOCK_-117" vertex="1">
          <mxGeometry y="30" width="230" height="26" as="geometry" />
        </mxCell>
        <mxCell id="IVzA2mqmO_1DDVfMOCK_-119" value="" style="line;strokeWidth=1;fillColor=none;align=left;verticalAlign=middle;spacingTop=-1;spacingLeft=3;spacingRight=3;rotatable=0;labelPosition=right;points=[];portConstraint=eastwest;strokeColor=inherit;" parent="IVzA2mqmO_1DDVfMOCK_-117" vertex="1">
          <mxGeometry y="56" width="230" height="8" as="geometry" />
        </mxCell>
        <mxCell id="IVzA2mqmO_1DDVfMOCK_-120" value="+ method(type): type" style="text;strokeColor=none;fillColor=none;align=left;verticalAlign=top;spacingLeft=4;spacingRight=4;overflow=hidden;rotatable=0;points=[[0,0.5],[1,0.5]];portConstraint=eastwest;whiteSpace=wrap;html=1;" parent="IVzA2mqmO_1DDVfMOCK_-117" vertex="1">
          <mxGeometry y="64" width="230" height="26" as="geometry" />
        </mxCell>
        <mxCell id="IVzA2mqmO_1DDVfMOCK_-122" value="" style="endArrow=block;dashed=1;endFill=0;endSize=12;html=1;rounded=0;exitX=-0.019;exitY=0.838;exitDx=0;exitDy=0;entryX=0.641;entryY=-0.027;entryDx=0;entryDy=0;exitPerimeter=0;entryPerimeter=0;" parent="1" source="IVzA2mqmO_1DDVfMOCK_-99" target="IVzA2mqmO_1DDVfMOCK_-68" edge="1">
          <mxGeometry width="160" relative="1" as="geometry">
            <mxPoint x="606" y="568" as="sourcePoint" />
            <mxPoint x="400" y="530" as="targetPoint" />
            <Array as="points">
              <mxPoint x="51" y="530" />
            </Array>
          </mxGeometry>
        </mxCell>
        <mxCell id="IVzA2mqmO_1DDVfMOCK_-123" value="" style="endArrow=block;dashed=1;endFill=0;endSize=12;html=1;rounded=0;entryX=0.5;entryY=0;entryDx=0;entryDy=0;exitX=0;exitY=0.5;exitDx=0;exitDy=0;" parent="1" source="IVzA2mqmO_1DDVfMOCK_-101" target="IVzA2mqmO_1DDVfMOCK_-69" edge="1">
          <mxGeometry width="160" relative="1" as="geometry">
            <mxPoint x="620" y="550" as="sourcePoint" />
            <mxPoint x="490" y="580" as="targetPoint" />
            <Array as="points">
              <mxPoint x="160" y="560" />
              <mxPoint x="160" y="800" />
              <mxPoint x="15" y="800" />
            </Array>
          </mxGeometry>
        </mxCell>
        <mxCell id="IVzA2mqmO_1DDVfMOCK_-124" value="" style="endArrow=block;dashed=1;endFill=0;endSize=12;html=1;rounded=0;" parent="1" source="IVzA2mqmO_1DDVfMOCK_-101" edge="1">
          <mxGeometry width="160" relative="1" as="geometry">
            <mxPoint x="1430" y="669" as="sourcePoint" />
            <mxPoint x="840" y="880" as="targetPoint" />
            <Array as="points">
              <mxPoint x="690" y="640" />
              <mxPoint x="840" y="640" />
            </Array>
          </mxGeometry>
        </mxCell>
        <mxCell id="IVzA2mqmO_1DDVfMOCK_-125" value="" style="endArrow=block;dashed=1;endFill=0;endSize=12;html=1;rounded=0;entryX=0.75;entryY=0;entryDx=0;entryDy=0;exitX=0.17;exitY=1.103;exitDx=0;exitDy=0;exitPerimeter=0;" parent="1" source="IVzA2mqmO_1DDVfMOCK_-101" target="IVzA2mqmO_1DDVfMOCK_-70" edge="1">
          <mxGeometry width="160" relative="1" as="geometry">
            <mxPoint x="621" y="580" as="sourcePoint" />
            <mxPoint x="300" y="886" as="targetPoint" />
            <Array as="points">
              <mxPoint x="637" y="600" />
              <mxPoint x="390" y="600" />
            </Array>
          </mxGeometry>
        </mxCell>
        <mxCell id="IVzA2mqmO_1DDVfMOCK_-126" value="&lt;p style=&quot;margin:0px;margin-top:4px;text-align:center;&quot;&gt;&lt;i&gt;&amp;lt;&amp;lt;enumeration&amp;gt;&amp;gt;&lt;br&gt;&lt;b&gt;OrderStatus&lt;/b&gt;&lt;/i&gt;&lt;/p&gt;&lt;hr size=&quot;1&quot; style=&quot;border-style:solid;&quot;&gt;&lt;p style=&quot;margin:0px;margin-left:4px;&quot;&gt;&lt;/p&gt;&lt;p style=&quot;margin:0px;margin-left:4px;&quot;&gt;contunuing&lt;/p&gt;&lt;p style=&quot;margin:0px;margin-left:4px;&quot;&gt;finished&lt;/p&gt;&lt;p style=&quot;margin:0px;margin-left:4px;&quot;&gt;freeze&lt;/p&gt;&lt;p style=&quot;margin:0px;margin-left:4px;&quot;&gt;blocked&lt;/p&gt;" style="verticalAlign=top;align=left;overflow=fill;html=1;whiteSpace=wrap;" parent="1" vertex="1">
          <mxGeometry x="-350" y="900" width="108.5" height="112" as="geometry" />
        </mxCell>
        <mxCell id="IVzA2mqmO_1DDVfMOCK_-129" value="" style="endArrow=block;dashed=1;endFill=0;endSize=12;html=1;rounded=0;exitX=1;exitY=0.5;exitDx=0;exitDy=0;entryX=0;entryY=0.5;entryDx=0;entryDy=0;" parent="1" source="q0Xq8yBIOzjxn-xwMt5K-91" target="IVzA2mqmO_1DDVfMOCK_-130" edge="1">
          <mxGeometry width="160" relative="1" as="geometry">
            <mxPoint x="-380" y="-200" as="sourcePoint" />
            <mxPoint x="-270" y="-131.1764705882353" as="targetPoint" />
          </mxGeometry>
        </mxCell>
        <mxCell id="IVzA2mqmO_1DDVfMOCK_-130" value="&lt;i&gt;«interface»&lt;br&gt;&lt;b&gt;Authentication&lt;/b&gt;&lt;/i&gt;" style="html=1;whiteSpace=wrap;" parent="1" vertex="1">
          <mxGeometry x="-210" y="-60" width="110" height="50" as="geometry" />
        </mxCell>
        <mxCell id="IVzA2mqmO_1DDVfMOCK_-131" value="" style="endArrow=block;dashed=1;endFill=0;endSize=12;html=1;rounded=0;exitX=0;exitY=0.5;exitDx=0;exitDy=0;entryX=1;entryY=0.5;entryDx=0;entryDy=0;" parent="1" source="q0Xq8yBIOzjxn-xwMt5K-90" target="IVzA2mqmO_1DDVfMOCK_-130" edge="1">
          <mxGeometry width="160" relative="1" as="geometry">
            <mxPoint x="20" y="-26" as="sourcePoint" />
            <mxPoint x="-100" y="-179" as="targetPoint" />
          </mxGeometry>
        </mxCell>
        <mxCell id="IVzA2mqmO_1DDVfMOCK_-132" value="Issues" style="swimlane;fontStyle=1;align=center;verticalAlign=top;childLayout=stackLayout;horizontal=1;startSize=30;horizontalStack=0;resizeParent=1;resizeParentMax=0;resizeLast=0;collapsible=1;marginBottom=0;whiteSpace=wrap;html=1;" parent="1" vertex="1">
          <mxGeometry x="860" y="590" width="140" height="90" as="geometry" />
        </mxCell>
        <mxCell id="IVzA2mqmO_1DDVfMOCK_-133" value="+ field: type" style="text;strokeColor=none;fillColor=none;align=left;verticalAlign=top;spacingLeft=4;spacingRight=4;overflow=hidden;rotatable=0;points=[[0,0.5],[1,0.5]];portConstraint=eastwest;whiteSpace=wrap;html=1;" parent="IVzA2mqmO_1DDVfMOCK_-132" vertex="1">
          <mxGeometry y="30" width="140" height="26" as="geometry" />
        </mxCell>
        <mxCell id="IVzA2mqmO_1DDVfMOCK_-134" value="" style="line;strokeWidth=1;fillColor=none;align=left;verticalAlign=middle;spacingTop=-1;spacingLeft=3;spacingRight=3;rotatable=0;labelPosition=right;points=[];portConstraint=eastwest;strokeColor=inherit;" parent="IVzA2mqmO_1DDVfMOCK_-132" vertex="1">
          <mxGeometry y="56" width="140" height="8" as="geometry" />
        </mxCell>
        <mxCell id="IVzA2mqmO_1DDVfMOCK_-135" value="+ method(type): type" style="text;strokeColor=none;fillColor=none;align=left;verticalAlign=top;spacingLeft=4;spacingRight=4;overflow=hidden;rotatable=0;points=[[0,0.5],[1,0.5]];portConstraint=eastwest;whiteSpace=wrap;html=1;" parent="IVzA2mqmO_1DDVfMOCK_-132" vertex="1">
          <mxGeometry y="64" width="140" height="26" as="geometry" />
        </mxCell>
        <mxCell id="IVzA2mqmO_1DDVfMOCK_-136" value="" style="endArrow=classic;html=1;rounded=0;exitX=0.5;exitY=0;exitDx=0;exitDy=0;" parent="1" source="IVzA2mqmO_1DDVfMOCK_-132" edge="1">
          <mxGeometry width="50" height="50" relative="1" as="geometry">
            <mxPoint x="1243" y="658" as="sourcePoint" />
            <mxPoint x="1100" y="558" as="targetPoint" />
            <Array as="points">
              <mxPoint x="930" y="558" />
              <mxPoint x="1000" y="558" />
            </Array>
          </mxGeometry>
        </mxCell>
        <mxCell id="IVzA2mqmO_1DDVfMOCK_-137" value="" style="endArrow=classic;html=1;rounded=0;entryX=0.686;entryY=1.063;entryDx=0;entryDy=0;entryPerimeter=0;" parent="1" target="IVzA2mqmO_1DDVfMOCK_-101" edge="1">
          <mxGeometry width="50" height="50" relative="1" as="geometry">
            <mxPoint x="860" y="610" as="sourcePoint" />
            <mxPoint x="854" y="498" as="targetPoint" />
            <Array as="points">
              <mxPoint x="720" y="610" />
            </Array>
          </mxGeometry>
        </mxCell>
        <mxCell id="IVzA2mqmO_1DDVfMOCK_-139" value="&lt;p style=&quot;margin:0px;margin-top:4px;text-align:center;&quot;&gt;&lt;i&gt;&amp;lt;&amp;lt;enumeration&amp;gt;&amp;gt;&lt;br&gt;&lt;b&gt;Role&lt;/b&gt;&lt;/i&gt;&lt;/p&gt;&lt;hr size=&quot;1&quot; style=&quot;border-style:solid;&quot;&gt;&lt;p style=&quot;margin:0px;margin-left:4px;&quot;&gt;&lt;/p&gt;&lt;p style=&quot;margin:0px;margin-left:4px;&quot;&gt;Personel&lt;/p&gt;&lt;p style=&quot;margin:0px;margin-left:4px;&quot;&gt;Accountant&lt;/p&gt;&lt;p style=&quot;margin:0px;margin-left:4px;&quot;&gt;Clevel&lt;/p&gt;" style="verticalAlign=top;align=left;overflow=fill;html=1;whiteSpace=wrap;" parent="1" vertex="1">
          <mxGeometry x="1900" y="116.49999999999997" width="108.5" height="93.5" as="geometry" />
        </mxCell>
        <mxCell id="IVzA2mqmO_1DDVfMOCK_-140" value="her rol icin yetki setleri olusturma" style="text;align=center;fontStyle=1;verticalAlign=middle;spacingLeft=3;spacingRight=3;strokeColor=none;rotatable=0;points=[[0,0.5],[1,0.5]];portConstraint=eastwest;html=1;" parent="1" vertex="1">
          <mxGeometry x="1914.25" y="80" width="80" height="26" as="geometry" />
        </mxCell>
        <mxCell id="IVzA2mqmO_1DDVfMOCK_-142" value="" style="endArrow=diamondThin;endFill=0;endSize=24;html=1;rounded=0;entryX=0;entryY=0.5;entryDx=0;entryDy=0;exitX=1;exitY=0.5;exitDx=0;exitDy=0;" parent="1" source="IVzA2mqmO_1DDVfMOCK_-23" target="IVzA2mqmO_1DDVfMOCK_-19" edge="1">
          <mxGeometry width="160" relative="1" as="geometry">
            <mxPoint x="180" y="484" as="sourcePoint" />
            <mxPoint x="312" y="330" as="targetPoint" />
          </mxGeometry>
        </mxCell>
        <mxCell id="IVzA2mqmO_1DDVfMOCK_-143" value="Payment" style="swimlane;fontStyle=1;align=center;verticalAlign=top;childLayout=stackLayout;horizontal=1;startSize=26;horizontalStack=0;resizeParent=1;resizeParentMax=0;resizeLast=0;collapsible=1;marginBottom=0;whiteSpace=wrap;html=1;" parent="1" vertex="1">
          <mxGeometry x="210" y="66.46000000000001" width="100" height="100" as="geometry" />
        </mxCell>
        <mxCell id="IVzA2mqmO_1DDVfMOCK_-144" value="+ field: type" style="text;strokeColor=none;fillColor=none;align=left;verticalAlign=top;spacingLeft=4;spacingRight=4;overflow=hidden;rotatable=0;points=[[0,0.5],[1,0.5]];portConstraint=eastwest;whiteSpace=wrap;html=1;" parent="IVzA2mqmO_1DDVfMOCK_-143" vertex="1">
          <mxGeometry y="26" width="100" height="26" as="geometry" />
        </mxCell>
        <mxCell id="IVzA2mqmO_1DDVfMOCK_-145" value="" style="line;strokeWidth=1;fillColor=none;align=left;verticalAlign=middle;spacingTop=-1;spacingLeft=3;spacingRight=3;rotatable=0;labelPosition=right;points=[];portConstraint=eastwest;strokeColor=inherit;" parent="IVzA2mqmO_1DDVfMOCK_-143" vertex="1">
          <mxGeometry y="52" width="100" height="8" as="geometry" />
        </mxCell>
        <mxCell id="IVzA2mqmO_1DDVfMOCK_-146" value="+ method(type): type" style="text;strokeColor=none;fillColor=none;align=left;verticalAlign=top;spacingLeft=4;spacingRight=4;overflow=hidden;rotatable=0;points=[[0,0.5],[1,0.5]];portConstraint=eastwest;whiteSpace=wrap;html=1;" parent="IVzA2mqmO_1DDVfMOCK_-143" vertex="1">
          <mxGeometry y="60" width="100" height="40" as="geometry" />
        </mxCell>
        <mxCell id="IVzA2mqmO_1DDVfMOCK_-147" value="Borrow" style="swimlane;fontStyle=1;align=center;verticalAlign=top;childLayout=stackLayout;horizontal=1;startSize=26;horizontalStack=0;resizeParent=1;resizeParentMax=0;resizeLast=0;collapsible=1;marginBottom=0;whiteSpace=wrap;html=1;" parent="1" vertex="1">
          <mxGeometry x="340" y="66.46000000000001" width="100" height="100" as="geometry" />
        </mxCell>
        <mxCell id="IVzA2mqmO_1DDVfMOCK_-148" value="+ field: type" style="text;strokeColor=none;fillColor=none;align=left;verticalAlign=top;spacingLeft=4;spacingRight=4;overflow=hidden;rotatable=0;points=[[0,0.5],[1,0.5]];portConstraint=eastwest;whiteSpace=wrap;html=1;" parent="IVzA2mqmO_1DDVfMOCK_-147" vertex="1">
          <mxGeometry y="26" width="100" height="26" as="geometry" />
        </mxCell>
        <mxCell id="IVzA2mqmO_1DDVfMOCK_-149" value="" style="line;strokeWidth=1;fillColor=none;align=left;verticalAlign=middle;spacingTop=-1;spacingLeft=3;spacingRight=3;rotatable=0;labelPosition=right;points=[];portConstraint=eastwest;strokeColor=inherit;" parent="IVzA2mqmO_1DDVfMOCK_-147" vertex="1">
          <mxGeometry y="52" width="100" height="8" as="geometry" />
        </mxCell>
        <mxCell id="IVzA2mqmO_1DDVfMOCK_-150" value="+ method(type): type" style="text;strokeColor=none;fillColor=none;align=left;verticalAlign=top;spacingLeft=4;spacingRight=4;overflow=hidden;rotatable=0;points=[[0,0.5],[1,0.5]];portConstraint=eastwest;whiteSpace=wrap;html=1;" parent="IVzA2mqmO_1DDVfMOCK_-147" vertex="1">
          <mxGeometry y="60" width="100" height="40" as="geometry" />
        </mxCell>
        <mxCell id="IVzA2mqmO_1DDVfMOCK_-151" value="Punishment" style="swimlane;fontStyle=1;align=center;verticalAlign=top;childLayout=stackLayout;horizontal=1;startSize=26;horizontalStack=0;resizeParent=1;resizeParentMax=0;resizeLast=0;collapsible=1;marginBottom=0;whiteSpace=wrap;html=1;" parent="1" vertex="1">
          <mxGeometry x="470" y="66.46" width="100" height="100" as="geometry" />
        </mxCell>
        <mxCell id="IVzA2mqmO_1DDVfMOCK_-152" value="+ field: type" style="text;strokeColor=none;fillColor=none;align=left;verticalAlign=top;spacingLeft=4;spacingRight=4;overflow=hidden;rotatable=0;points=[[0,0.5],[1,0.5]];portConstraint=eastwest;whiteSpace=wrap;html=1;" parent="IVzA2mqmO_1DDVfMOCK_-151" vertex="1">
          <mxGeometry y="26" width="100" height="26" as="geometry" />
        </mxCell>
        <mxCell id="IVzA2mqmO_1DDVfMOCK_-153" value="" style="line;strokeWidth=1;fillColor=none;align=left;verticalAlign=middle;spacingTop=-1;spacingLeft=3;spacingRight=3;rotatable=0;labelPosition=right;points=[];portConstraint=eastwest;strokeColor=inherit;" parent="IVzA2mqmO_1DDVfMOCK_-151" vertex="1">
          <mxGeometry y="52" width="100" height="8" as="geometry" />
        </mxCell>
        <mxCell id="IVzA2mqmO_1DDVfMOCK_-154" value="+ method(type): type" style="text;strokeColor=none;fillColor=none;align=left;verticalAlign=top;spacingLeft=4;spacingRight=4;overflow=hidden;rotatable=0;points=[[0,0.5],[1,0.5]];portConstraint=eastwest;whiteSpace=wrap;html=1;" parent="IVzA2mqmO_1DDVfMOCK_-151" vertex="1">
          <mxGeometry y="60" width="100" height="40" as="geometry" />
        </mxCell>
        <mxCell id="IVzA2mqmO_1DDVfMOCK_-159" value="" style="endArrow=classic;html=1;rounded=0;exitX=0.006;exitY=-0.103;exitDx=0;exitDy=0;exitPerimeter=0;" parent="1" source="yLif0t2-L7paf6NupwVh-7" edge="1">
          <mxGeometry width="50" height="50" relative="1" as="geometry">
            <mxPoint x="1645" y="640" as="sourcePoint" />
            <mxPoint x="1003" y="660" as="targetPoint" />
          </mxGeometry>
        </mxCell>
        <mxCell id="IVzA2mqmO_1DDVfMOCK_-160" value="accesses" style="text;html=1;align=center;verticalAlign=middle;whiteSpace=wrap;rounded=0;" parent="1" vertex="1">
          <mxGeometry x="1490" y="660" width="120" height="30" as="geometry" />
        </mxCell>
        <mxCell id="AgzgaEjoR8yFsVKr8jUF-27" value="" style="endArrow=block;endSize=16;endFill=0;html=1;rounded=0;" parent="1" edge="1">
          <mxGeometry width="160" relative="1" as="geometry">
            <mxPoint x="260" y="170" as="sourcePoint" />
            <mxPoint x="320" y="287" as="targetPoint" />
            <Array as="points">
              <mxPoint x="260" y="200" />
              <mxPoint x="400" y="200" />
              <mxPoint x="400" y="250" />
              <mxPoint x="320" y="250" />
            </Array>
          </mxGeometry>
        </mxCell>
        <mxCell id="AgzgaEjoR8yFsVKr8jUF-29" value="" style="endArrow=none;html=1;edgeStyle=orthogonalEdgeStyle;rounded=0;" parent="1" edge="1">
          <mxGeometry relative="1" as="geometry">
            <mxPoint x="310" y="200" as="sourcePoint" />
            <mxPoint x="400" y="170" as="targetPoint" />
            <Array as="points">
              <mxPoint x="400" y="200" />
              <mxPoint x="400" y="170" />
            </Array>
          </mxGeometry>
        </mxCell>
        <mxCell id="AgzgaEjoR8yFsVKr8jUF-30" value="" style="endArrow=none;html=1;edgeStyle=orthogonalEdgeStyle;rounded=0;entryX=0;entryY=0.5;entryDx=0;entryDy=0;" parent="1" edge="1">
          <mxGeometry relative="1" as="geometry">
            <mxPoint x="400" y="200" as="sourcePoint" />
            <mxPoint x="522.48" y="165.48" as="targetPoint" />
            <Array as="points">
              <mxPoint x="522" y="200" />
            </Array>
          </mxGeometry>
        </mxCell>
        <mxCell id="AgzgaEjoR8yFsVKr8jUF-31" value="" style="endArrow=diamondThin;endFill=0;endSize=24;html=1;rounded=0;entryX=0.001;entryY=0.154;entryDx=0;entryDy=0;entryPerimeter=0;" parent="1" target="IVzA2mqmO_1DDVfMOCK_-82" edge="1">
          <mxGeometry width="160" relative="1" as="geometry">
            <mxPoint x="300" y="390" as="sourcePoint" />
            <mxPoint x="400" y="394" as="targetPoint" />
            <Array as="points">
              <mxPoint x="300" y="440" />
              <mxPoint x="1000" y="440" />
              <mxPoint x="1000" y="530" />
            </Array>
          </mxGeometry>
        </mxCell>
        <mxCell id="AgzgaEjoR8yFsVKr8jUF-32" value="1" style="text;html=1;align=center;verticalAlign=middle;resizable=0;points=[];autosize=1;strokeColor=none;fillColor=none;" parent="1" vertex="1">
          <mxGeometry x="-300" y="148.25" width="30" height="30" as="geometry" />
        </mxCell>
        <mxCell id="AgzgaEjoR8yFsVKr8jUF-33" value="*" style="text;html=1;align=center;verticalAlign=middle;resizable=0;points=[];autosize=1;strokeColor=none;fillColor=none;" parent="1" vertex="1">
          <mxGeometry x="-480" y="780" width="30" height="30" as="geometry" />
        </mxCell>
        <mxCell id="AgzgaEjoR8yFsVKr8jUF-34" value="1" style="text;html=1;align=center;verticalAlign=middle;resizable=0;points=[];autosize=1;strokeColor=none;fillColor=none;" parent="1" vertex="1">
          <mxGeometry x="-190" y="66.46" width="30" height="30" as="geometry" />
        </mxCell>
        <mxCell id="AgzgaEjoR8yFsVKr8jUF-36" value="1" style="text;html=1;align=center;verticalAlign=middle;resizable=0;points=[];autosize=1;strokeColor=none;fillColor=none;" parent="1" vertex="1">
          <mxGeometry x="-30" y="136.46" width="30" height="30" as="geometry" />
        </mxCell>
        <mxCell id="AgzgaEjoR8yFsVKr8jUF-37" value="1" style="text;html=1;align=center;verticalAlign=middle;resizable=0;points=[];autosize=1;strokeColor=none;fillColor=none;" parent="1" vertex="1">
          <mxGeometry x="-10" y="246" width="30" height="30" as="geometry" />
        </mxCell>
        <mxCell id="AgzgaEjoR8yFsVKr8jUF-38" value="*" style="text;html=1;align=center;verticalAlign=middle;resizable=0;points=[];autosize=1;strokeColor=none;fillColor=none;" parent="1" vertex="1">
          <mxGeometry x="-10" y="280" width="30" height="30" as="geometry" />
        </mxCell>
        <mxCell id="AgzgaEjoR8yFsVKr8jUF-39" value="0...5" style="text;html=1;align=center;verticalAlign=middle;resizable=0;points=[];autosize=1;strokeColor=none;fillColor=none;" parent="1" vertex="1">
          <mxGeometry x="1055" y="498" width="50" height="30" as="geometry" />
        </mxCell>
        <mxCell id="AgzgaEjoR8yFsVKr8jUF-40" value="1" style="text;html=1;align=center;verticalAlign=middle;resizable=0;points=[];autosize=1;strokeColor=none;fillColor=none;" parent="1" vertex="1">
          <mxGeometry x="295" y="386" width="30" height="30" as="geometry" />
        </mxCell>
        <mxCell id="AgzgaEjoR8yFsVKr8jUF-41" value="1" style="text;html=1;align=center;verticalAlign=middle;resizable=0;points=[];autosize=1;strokeColor=none;fillColor=none;" parent="1" vertex="1">
          <mxGeometry x="473" y="291" width="30" height="30" as="geometry" />
        </mxCell>
        <mxCell id="AgzgaEjoR8yFsVKr8jUF-42" value="*" style="text;html=1;align=center;verticalAlign=middle;resizable=0;points=[];autosize=1;strokeColor=none;fillColor=none;" parent="1" vertex="1">
          <mxGeometry x="390" y="291" width="30" height="30" as="geometry" />
        </mxCell>
        <mxCell id="AgzgaEjoR8yFsVKr8jUF-43" value="1" style="text;html=1;align=center;verticalAlign=middle;resizable=0;points=[];autosize=1;strokeColor=none;fillColor=none;" parent="1" vertex="1">
          <mxGeometry x="1025" y="208" width="30" height="30" as="geometry" />
        </mxCell>
        <mxCell id="AgzgaEjoR8yFsVKr8jUF-44" value="*" style="text;html=1;align=center;verticalAlign=middle;resizable=0;points=[];autosize=1;strokeColor=none;fillColor=none;" parent="1" vertex="1">
          <mxGeometry x="955" y="248" width="30" height="30" as="geometry" />
        </mxCell>
        <mxCell id="AgzgaEjoR8yFsVKr8jUF-45" value="" style="endArrow=diamondThin;endFill=0;endSize=24;html=1;rounded=0;exitX=1;exitY=0.5;exitDx=0;exitDy=0;entryX=-0.003;entryY=0.224;entryDx=0;entryDy=0;entryPerimeter=0;" parent="1" target="IVzA2mqmO_1DDVfMOCK_-91" edge="1">
          <mxGeometry width="160" relative="1" as="geometry">
            <mxPoint x="960" y="321" as="sourcePoint" />
            <mxPoint x="1060" y="285" as="targetPoint" />
            <Array as="points">
              <mxPoint x="1020" y="321" />
              <mxPoint x="1020" y="340" />
            </Array>
          </mxGeometry>
        </mxCell>
        <mxCell id="AgzgaEjoR8yFsVKr8jUF-46" value="*" style="text;html=1;align=center;verticalAlign=middle;resizable=0;points=[];autosize=1;strokeColor=none;fillColor=none;" parent="1" vertex="1">
          <mxGeometry x="955" y="298" width="30" height="30" as="geometry" />
        </mxCell>
        <mxCell id="AgzgaEjoR8yFsVKr8jUF-47" value="1" style="text;html=1;align=center;verticalAlign=middle;resizable=0;points=[];autosize=1;strokeColor=none;fillColor=none;" parent="1" vertex="1">
          <mxGeometry x="1025" y="306.46" width="30" height="30" as="geometry" />
        </mxCell>
        <mxCell id="AgzgaEjoR8yFsVKr8jUF-48" value="1" style="text;html=1;align=center;verticalAlign=middle;resizable=0;points=[];autosize=1;strokeColor=none;fillColor=none;" parent="1" vertex="1">
          <mxGeometry x="205" y="308" width="30" height="30" as="geometry" />
        </mxCell>
        <mxCell id="AgzgaEjoR8yFsVKr8jUF-49" value="1" style="text;html=1;align=center;verticalAlign=middle;resizable=0;points=[];autosize=1;strokeColor=none;fillColor=none;" parent="1" vertex="1">
          <mxGeometry x="155" y="308" width="30" height="30" as="geometry" />
        </mxCell>
        <mxCell id="AgzgaEjoR8yFsVKr8jUF-50" value="1" style="text;html=1;align=center;verticalAlign=middle;resizable=0;points=[];autosize=1;strokeColor=none;fillColor=none;" parent="1" vertex="1">
          <mxGeometry x="555" y="338" width="30" height="30" as="geometry" />
        </mxCell>
        <mxCell id="AgzgaEjoR8yFsVKr8jUF-51" value="1" style="text;html=1;align=center;verticalAlign=middle;resizable=0;points=[];autosize=1;strokeColor=none;fillColor=none;" parent="1" vertex="1">
          <mxGeometry x="-405" y="788" width="30" height="30" as="geometry" />
        </mxCell>
        <mxCell id="AgzgaEjoR8yFsVKr8jUF-54" value="1" style="text;html=1;align=center;verticalAlign=middle;resizable=0;points=[];autosize=1;strokeColor=none;fillColor=none;" vertex="1" parent="1">
          <mxGeometry x="565" y="228" width="30" height="30" as="geometry" />
        </mxCell>
        <mxCell id="AgzgaEjoR8yFsVKr8jUF-55" value="*" style="text;html=1;align=center;verticalAlign=middle;resizable=0;points=[];autosize=1;strokeColor=none;fillColor=none;" vertex="1" parent="1">
          <mxGeometry x="75" y="198" width="30" height="30" as="geometry" />
        </mxCell>
        <mxCell id="AgzgaEjoR8yFsVKr8jUF-56" value="1" style="text;html=1;align=center;verticalAlign=middle;resizable=0;points=[];autosize=1;strokeColor=none;fillColor=none;" vertex="1" parent="1">
          <mxGeometry x="1665" y="638" width="30" height="30" as="geometry" />
        </mxCell>
        <mxCell id="AgzgaEjoR8yFsVKr8jUF-57" value="*" style="text;html=1;align=center;verticalAlign=middle;resizable=0;points=[];autosize=1;strokeColor=none;fillColor=none;" vertex="1" parent="1">
          <mxGeometry x="1000" y="630" width="30" height="30" as="geometry" />
        </mxCell>
        <mxCell id="AgzgaEjoR8yFsVKr8jUF-58" value="1" style="text;html=1;align=center;verticalAlign=middle;resizable=0;points=[];autosize=1;strokeColor=none;fillColor=none;" vertex="1" parent="1">
          <mxGeometry x="900" y="560" width="30" height="30" as="geometry" />
        </mxCell>
        <mxCell id="AgzgaEjoR8yFsVKr8jUF-59" value="1" style="text;html=1;align=center;verticalAlign=middle;resizable=0;points=[];autosize=1;strokeColor=none;fillColor=none;" vertex="1" parent="1">
          <mxGeometry x="1070" y="560" width="30" height="30" as="geometry" />
        </mxCell>
        <mxCell id="AgzgaEjoR8yFsVKr8jUF-60" value="1" style="text;html=1;align=center;verticalAlign=middle;resizable=0;points=[];autosize=1;strokeColor=none;fillColor=none;" vertex="1" parent="1">
          <mxGeometry x="-625" y="98" width="30" height="30" as="geometry" />
        </mxCell>
        <mxCell id="AgzgaEjoR8yFsVKr8jUF-61" value="1" style="text;html=1;align=center;verticalAlign=middle;resizable=0;points=[];autosize=1;strokeColor=none;fillColor=none;" vertex="1" parent="1">
          <mxGeometry x="-515" y="-12" width="30" height="30" as="geometry" />
        </mxCell>
        <mxCell id="AgzgaEjoR8yFsVKr8jUF-62" value="1" style="text;html=1;align=center;verticalAlign=middle;resizable=0;points=[];autosize=1;strokeColor=none;fillColor=none;" vertex="1" parent="1">
          <mxGeometry x="725" y="-212" width="30" height="30" as="geometry" />
        </mxCell>
        <mxCell id="AgzgaEjoR8yFsVKr8jUF-63" value="*" style="text;html=1;align=center;verticalAlign=middle;resizable=0;points=[];autosize=1;strokeColor=none;fillColor=none;" vertex="1" parent="1">
          <mxGeometry x="725" y="-332" width="30" height="30" as="geometry" />
        </mxCell>
        <mxCell id="AgzgaEjoR8yFsVKr8jUF-64" value="1" style="text;html=1;align=center;verticalAlign=middle;resizable=0;points=[];autosize=1;strokeColor=none;fillColor=none;" vertex="1" parent="1">
          <mxGeometry x="825" y="-182" width="30" height="30" as="geometry" />
        </mxCell>
        <mxCell id="AgzgaEjoR8yFsVKr8jUF-65" value="*" style="text;html=1;align=center;verticalAlign=middle;resizable=0;points=[];autosize=1;strokeColor=none;fillColor=none;" vertex="1" parent="1">
          <mxGeometry x="955" y="-186" width="30" height="30" as="geometry" />
        </mxCell>
      </root>
    </mxGraphModel>
  </diagram>
</mxfile>
